<?xml version="1.0" standalone="no"?>
<!DOCTYPE svg PUBLIC "-//W3C//DTD SVG 20010904//EN"
 "http://www.w3.org/TR/2001/REC-SVG-20010904/DTD/svg10.dtd">
<svg version="1.0" xmlns="http://www.w3.org/2000/svg"
 width="340.000000pt" height="471.000000pt" viewBox="0 0 340.000000 471.000000"
 preserveAspectRatio="xMidYMid meet">

<g transform="translate(0.000000,471.000000) scale(0.100000,-0.100000)"
fill="#000000" stroke="none">
<path d="M104 4699 c-46 -13 -91 -69 -99 -121 -3 -24 -5 -1040 -3 -2258 3
-2150 4 -2216 22 -2246 10 -17 33 -40 50 -50 30 -18 81 -19 1628 -19 l1597 0
27 21 c15 11 37 33 48 48 l21 27 0 2252 0 2252 -22 31 c-12 17 -35 40 -50 50
-27 18 -79 19 -1608 21 -936 1 -1593 -2 -1611 -8z m2443 -154 c6 -2 13 -1 15
3 2 4 44 5 93 2 50 -3 146 -2 214 2 69 4 181 7 250 5 l126 -2 0 -960 c0 -1104
-1 -1131 -21 -1111 -17 18 -19 127 -2 144 9 9 9 12 0 12 -13 0 -14 158 0 176
5 7 4 22 -1 35 -12 35 -12 349 1 349 6 0 5 7 -3 16 -10 13 -10 17 2 26 11 7
11 11 1 15 -9 4 -12 137 -12 630 1 344 -1 627 -3 629 -2 2 -86 5 -188 6 -101
1 -189 5 -195 10 -6 5 -22 4 -35 0 -13 -5 -156 -10 -316 -10 -246 -1 -293 1
-293 13 0 8 13 15 33 18 35 4 315 -2 334 -8z m-2217 1 c0 -3 -4 -8 -10 -11 -5
-3 -10 -1 -10 4 0 6 5 11 10 11 6 0 10 -2 10 -4z m80 0 c0 -3 -4 -8 -10 -11
-5 -3 -10 -1 -10 4 0 6 5 11 10 11 6 0 10 -2 10 -4z m144 -17 c-3 -5 -10 -7
-15 -3 -5 3 -7 10 -3 15 3 5 10 7 15 3 5 -3 7 -10 3 -15z m296 13 c0 -4 -18
-9 -40 -10 -23 -2 -40 2 -40 8 0 5 18 10 40 10 22 0 40 -4 40 -8z m40 -2 c0
-5 -5 -10 -11 -10 -5 0 -7 5 -4 10 3 6 8 10 11 10 2 0 4 -4 4 -10z m362 -2
c-17 -8 -26 -8 -34 0 -9 9 -4 12 23 11 32 0 33 -1 11 -11z m315 6 c-3 -3 -12
-4 -19 -1 -8 3 -5 6 6 6 11 1 17 -2 13 -5z m91 -1 c-10 -2 -26 -2 -35 0 -10 3
-2 5 17 5 19 0 27 -2 18 -5z m107 -3 c3 -5 -3 -10 -14 -10 -11 0 -23 5 -26 10
-3 6 3 10 14 10 11 0 23 -4 26 -10z m160 0 c-3 -5 -36 -9 -73 -9 -52 1 -60 3
-37 9 46 12 117 12 110 0z m245 -3 c0 -19 -110 -23 -122 -5 -6 10 -10 10 -16
1 -4 -6 -23 -10 -42 -9 -53 5 -56 6 -41 15 8 5 60 10 117 10 82 1 104 -1 104
-12z m-553 -13 c-3 -3 -12 -4 -19 -1 -8 3 -5 6 6 6 11 1 17 -2 13 -5z m1527
-39 c-4 -8 -8 -15 -10 -15 -2 0 -4 7 -4 15 0 8 4 15 10 15 5 0 7 -7 4 -15z
m-867 -71 c-3 -3 -12 -4 -19 -1 -8 3 -5 6 6 6 11 1 17 -2 13 -5z m300 0 c-3
-3 -12 -4 -19 -1 -8 3 -5 6 6 6 11 1 17 -2 13 -5z m376 -1 c-7 -2 -19 -2 -25
0 -7 3 -2 5 12 5 14 0 19 -2 13 -5z m120 0 c-7 -2 -21 -2 -30 0 -10 3 -4 5 12
5 17 0 24 -2 18 -5z m-2623 -95 c0 -6 -9 1 -20 15 -11 14 -20 29 -20 34 1 11
40 -37 40 -49z m2590 37 c6 -8 10 -19 8 -24 -1 -5 -11 2 -21 15 -19 26 -8 34
13 9z m150 1 c0 -3 -4 -8 -10 -11 -5 -3 -10 -1 -10 4 0 6 5 11 10 11 6 0 10
-2 10 -4z m-30 -16 c0 -5 -2 -10 -4 -10 -3 0 -8 5 -11 10 -3 6 -1 10 4 10 6 0
11 -4 11 -10z m40 -51 c0 -11 -4 -18 -10 -14 -5 3 -7 12 -3 20 7 21 13 19 13
-6z m-57 -9 c3 -11 1 -23 -4 -26 -5 -3 -9 6 -9 20 0 31 6 34 13 6z m-36 -27
c-3 -10 -5 -4 -5 12 0 17 2 24 5 18 2 -7 2 -21 0 -30z m0 -90 c-3 -10 -5 -2
-5 17 0 19 2 27 5 18 2 -10 2 -26 0 -35z m93 -111 c0 -5 -7 -9 -15 -9 -8 0
-15 4 -15 9 0 4 7 8 15 8 8 0 15 -4 15 -8z m-93 -109 c-3 -10 -5 -2 -5 17 0
19 2 27 5 18 2 -10 2 -26 0 -35z m0 -55 c-3 -7 -5 -2 -5 12 0 14 2 19 5 13 2
-7 2 -19 0 -25z m-2830 -70 c-3 -8 -6 -5 -6 6 -1 11 2 17 5 13 3 -3 4 -12 1
-19z m2830 -10 c-3 -7 -5 -2 -5 12 0 14 2 19 5 13 2 -7 2 -19 0 -25z m-1901
-62 c4 -11 13 -26 20 -34 12 -11 14 -9 14 12 0 14 -4 26 -10 26 -5 0 -10 5
-10 12 0 8 7 6 17 -5 12 -12 18 -35 19 -75 3 -83 3 -84 17 -76 6 4 9 4 5 -1
-4 -4 -1 -17 7 -29 8 -11 15 -26 15 -32 0 -16 -53 -29 -58 -15 -2 6 -12 11
-23 11 -10 0 -19 5 -19 11 0 5 -4 7 -10 4 -5 -3 -10 -11 -10 -16 0 -6 5 -7 10
-4 6 3 10 -1 10 -10 0 -16 -38 -37 -52 -28 -5 2 -8 22 -8 43 0 21 -4 41 -8 44
-5 3 -8 -5 -8 -17 1 -14 -6 -22 -19 -24 -18 -3 -18 -2 -2 5 18 7 18 9 2 22
-14 12 -18 12 -25 0 -5 -8 -11 -12 -14 -9 -7 6 33 83 45 87 17 7 9 41 -11 52
-11 6 -18 15 -15 20 3 5 0 12 -6 16 -19 12 25 29 76 29 36 0 46 -3 51 -19z
m-143 -6 c4 -17 2 -18 -14 -9 -11 5 -17 14 -14 20 10 15 22 10 28 -11z m944 4
c-3 -3 -12 -4 -19 -1 -8 3 -5 6 6 6 11 1 17 -2 13 -5z m373 -4 c0 -5 -2 -10
-4 -10 -3 0 -8 5 -11 10 -3 6 -1 10 4 10 6 0 11 -4 11 -10z m494 -7 c3 -7 3
-20 0 -28 -5 -13 -9 -13 -22 -3 -13 11 -15 10 -10 -8 4 -17 1 -21 -16 -20 -19
1 -22 7 -17 35 0 5 11 12 24 14 16 3 12 5 -13 7 l-35 2 30 7 c44 10 54 9 59
-6z m-788 -5 c4 -7 4 -10 0 -7 -13 12 -88 -12 -106 -33 -17 -22 -50 -33 -50
-17 0 5 11 11 24 15 13 3 26 14 29 24 7 26 90 40 103 18z m58 3 c4 -5 0 -12
-6 -15 -7 -3 -1 -3 14 -1 27 4 27 3 15 -28 -7 -17 -17 -32 -23 -34 -12 -4 -38
63 -29 77 8 12 22 13 29 1z m641 -5 c12 -11 7 -13 -30 -8 -30 3 -51 0 -62 -9
-14 -12 -16 -12 -8 0 6 11 4 13 -8 8 -17 -6 -23 4 -10 16 12 13 104 7 118 -7z
m-1970 -6 c3 -5 1 -10 -4 -10 -6 0 -11 5 -11 10 0 6 2 10 4 10 3 0 8 -4 11
-10z m1130 0 c-3 -5 -11 -10 -16 -10 -6 0 -7 5 -4 10 3 6 11 10 16 10 6 0 7
-4 4 -10z m470 -21 c11 -17 2 -18 -19 -3 -17 12 -17 14 -4 14 9 0 20 -5 23
-11z m-506 -40 c-20 -12 -22 -4 -8 23 12 21 13 21 17 4 2 -10 -2 -22 -9 -27z
m766 23 c-3 -3 -11 0 -18 7 -9 10 -8 11 6 5 10 -3 15 -9 12 -12z m-1855 -8 c0
-2 -7 -4 -15 -4 -8 0 -15 4 -15 10 0 5 7 7 15 4 8 -4 15 -8 15 -10z m788 -22
c-10 -5 -39 24 -32 31 3 3 13 -2 23 -11 9 -9 13 -18 9 -20z m766 32 c13 -5 14
-9 5 -20 -16 -20 -29 -17 -29 6 0 22 1 23 24 14z m-650 -10 c13 -5 14 -9 5
-20 -16 -20 -29 -17 -29 6 0 22 1 23 24 14z m-854 -55 c0 -11 -7 -19 -17 -19
-14 0 -15 2 -4 9 11 7 11 13 0 32 -11 22 -11 23 4 10 10 -7 17 -22 17 -32z
m-30 11 c0 -5 -5 -10 -11 -10 -5 0 -7 5 -4 10 3 6 8 10 11 10 2 0 4 -4 4 -10z
m693 -4 c3 -8 -5 -36 -19 -63 -17 -32 -24 -39 -20 -21 5 22 3 26 -9 22 -8 -4
-15 -1 -15 6 0 6 5 8 10 5 6 -3 10 -1 10 4 0 6 5 10 11 9 6 -2 14 3 16 10 3 6
0 12 -6 12 -6 0 -11 7 -11 15 0 19 26 20 33 1z m379 -1 c0 -5 -5 -11 -11 -13
-6 -2 -11 4 -11 13 0 9 5 15 11 13 6 -2 11 -8 11 -13z m508 5 c0 -5 -5 -10
-11 -10 -5 0 -7 5 -4 10 3 6 8 10 11 10 2 0 4 -4 4 -10z m-472 -61 c-2 -28 -7
-34 -27 -34 -18 0 -27 7 -32 28 -4 15 -3 27 1 27 5 0 11 -8 13 -17 4 -15 5
-14 6 3 1 25 22 47 34 35 5 -5 7 -24 5 -42z m-1042 4 c4 -10 9 -22 10 -28 1
-5 3 -14 4 -20 2 -5 4 -17 4 -25 1 -8 9 -14 19 -12 22 4 21 -3 0 -28 -23 -26
-26 -61 -6 -53 11 4 14 -1 13 -18 -3 -39 -1 -51 10 -44 6 3 10 0 11 -7 0 -10
2 -10 6 0 7 19 23 14 17 -5 -2 -10 1 -8 8 5 8 16 8 26 2 30 -28 19 -40 112
-15 112 8 0 11 3 8 7 -11 10 14 33 37 33 17 0 18 -2 6 -9 -8 -6 -18 -7 -22 -5
-4 3 -8 0 -8 -6 0 -8 9 -10 26 -6 19 5 25 3 21 -6 -2 -7 -9 -12 -14 -11 -9 2
-11 -4 -15 -47 -3 -23 -9 -25 -26 -8 -6 6 -15 8 -19 3 -5 -4 -2 -10 5 -12 6
-3 12 -11 12 -19 0 -9 5 -12 10 -9 6 3 10 -1 10 -10 0 -8 4 -23 9 -33 6 -9 19
-43 30 -74 21 -58 19 -88 -4 -88 -7 0 -35 -20 -63 -45 -27 -25 -56 -45 -63
-44 -8 0 -9 2 -3 5 6 3 9 16 6 29 -2 14 -8 23 -12 20 -9 -6 -20 58 -11 65 3 3
12 13 19 22 12 15 12 20 -1 33 -9 8 -23 15 -31 15 -9 0 -16 8 -16 20 0 30 3
35 19 32 11 -3 11 -1 -1 12 -17 17 -13 66 6 66 6 0 4 4 -4 10 -15 9 -23 80 -8
80 4 0 8 4 8 10 0 5 -7 7 -15 4 -8 -4 -15 -1 -15 5 0 6 5 11 11 11 6 0 9 10 7
23 -2 12 -9 21 -16 20 -6 -2 -12 2 -12 7 0 17 37 11 46 -7z m789 7 c-3 -6 5
-10 19 -10 13 0 32 -7 40 -16 24 -23 19 -27 -9 -8 -30 20 -33 9 -5 -14 21 -17
21 -17 -10 -44 l-30 -26 0 24 c0 16 4 22 14 18 23 -9 27 12 6 31 -16 14 -20
15 -21 4 -1 -8 -4 -3 -8 11 -8 24 -5 40 5 40 3 0 2 -4 -1 -10z m485 -9 c-1 -3
-7 -17 -15 -31 -17 -30 -19 -44 -5 -35 6 4 10 -6 10 -22 -1 -27 -1 -27 -16 -8
-16 20 -16 20 -10 -2 5 -16 2 -23 -14 -28 -11 -4 -18 -10 -16 -14 3 -4 -5 -7
-17 -7 -12 0 -36 -3 -53 -7 -22 -4 -40 0 -65 15 -19 12 -29 23 -21 25 6 3 12
11 12 19 0 9 -5 12 -12 8 -10 -5 -10 -4 -1 6 14 16 23 10 28 -17 1 -10 7 -17
12 -16 5 1 26 -2 46 -7 30 -6 42 -4 62 12 26 20 35 71 15 83 -16 10 -11 33 8
37 21 5 52 -2 52 -11z m220 0 c6 -1 -50 -31 -59 -31 -3 0 1 5 9 10 10 6 11 10
3 10 -7 0 -13 4 -13 9 0 8 32 9 60 2z m-1755 -31 c3 -5 1 -10 -4 -10 -6 0 -11
5 -11 10 0 6 2 10 4 10 3 0 8 -4 11 -10z m1751 -5 c17 -16 11 -35 -11 -35 -8
0 -19 -8 -24 -19 -8 -15 -6 -22 14 -37 22 -17 23 -19 7 -26 -38 -15 -44 -10
-38 30 4 20 7 45 8 54 1 9 6 14 10 12 16 -10 29 7 17 22 -15 19 -2 18 17 -1z
m-811 -15 c3 -5 3 -15 -1 -21 -6 -11 -23 6 -24 24 0 10 18 9 25 -3z m-355 -10
c0 -5 -4 -10 -10 -10 -5 0 -10 5 -10 10 0 6 5 10 10 10 6 0 10 -4 10 -10z m94
-22 c-3 -4 0 -8 6 -8 7 0 10 -7 6 -15 -3 -9 0 -15 9 -15 11 0 22 -17 30 -50 1
-3 5 -18 9 -35 4 -16 14 -43 21 -60 25 -58 27 -75 11 -90 -17 -17 -30 -20 -21
-5 3 6 -1 10 -9 10 -9 0 -16 -6 -16 -14 0 -16 24 -39 32 -30 3 2 8 -1 11 -9 4
-11 -3 -14 -29 -13 -23 1 -34 6 -35 16 0 10 -3 8 -9 -5 -5 -11 -9 -14 -9 -6
-1 9 -5 10 -13 4 -7 -6 -33 -13 -57 -17 -41 -6 -43 -5 -30 11 12 15 12 16 -3
10 -12 -4 -15 -2 -11 9 3 7 9 14 14 14 4 0 11 16 15 35 3 19 10 32 15 29 5 -3
6 2 2 12 -5 13 -2 15 17 9 15 -5 20 -4 16 4 -4 6 -15 11 -24 11 -16 1 -16 2 0
14 10 7 15 16 11 20 -4 3 2 12 12 20 14 10 15 15 5 21 -8 5 -18 2 -25 -8 -14
-19 -25 -12 -25 15 0 15 5 18 23 13 13 -4 17 -3 10 2 -7 5 -10 19 -6 31 l5 22
33 -24 c23 -18 32 -20 32 -10 0 8 -4 14 -9 14 -5 0 -17 7 -25 16 -14 13 -14
17 -2 25 12 8 12 10 0 18 -9 6 -11 16 -7 27 6 15 9 16 16 4 5 -8 6 -18 4 -22z
m219 25 c-18 -7 -16 -31 3 -35 29 -6 -22 -58 -56 -58 -16 0 -31 4 -34 9 -3 4
10 7 28 5 33 -2 34 -1 26 27 -5 15 -11 33 -14 38 -4 5 4 12 16 14 32 6 45 6
31 0z m1101 -8 c-4 -8 -11 -12 -16 -9 -6 4 -5 10 3 15 19 12 19 11 13 -6z
m-41 -15 c3 -11 1 -18 -4 -14 -5 3 -9 12 -9 20 0 20 7 17 13 -6z m-1989 -13
c11 -10 10 -23 -4 -67 -19 -60 -28 -67 -41 -32 -5 13 -5 22 1 22 5 0 14 9 20
20 9 17 7 22 -12 30 -13 5 -17 9 -10 9 6 1 12 8 12 16 0 18 17 19 34 2z m845
-16 c-15 -5 -22 6 -14 19 6 9 10 9 16 -1 5 -8 4 -15 -2 -18z m305 7 c-38 -45
-44 -49 -60 -46 -21 4 -13 24 8 21 10 -2 25 8 35 22 10 13 22 25 27 25 5 0 1
-10 -10 -22z m634 -9 c-3 -8 -7 -3 -11 10 -4 17 -3 21 5 13 5 -5 8 -16 6 -23z
m-1518 12 c0 -6 -4 -13 -10 -16 -5 -3 -10 1 -10 9 0 9 5 16 10 16 6 0 10 -4
10 -9z m802 -6 c0 -5 -5 -11 -11 -13 -6 -2 -11 4 -11 13 0 9 5 15 11 13 6 -2
11 -8 11 -13z m159 -16 c12 -19 11 -29 -1 -29 -5 0 -10 7 -10 16 0 8 -5 12
-10 9 -6 -4 -8 -11 -5 -16 4 -5 2 -9 -3 -9 -5 0 -9 11 -9 24 0 26 22 29 38 5z
m1059 11 c24 -8 24 -8 3 -9 -13 -1 -23 -6 -23 -11 0 -7 -7 -7 -20 0 -11 6 -18
15 -15 21 7 10 20 10 55 -1z m80 0 c-20 -13 -40 -13 -40 0 0 6 12 10 28 10 21
0 24 -2 12 -10z m-1790 -10 c0 -5 -5 -10 -11 -10 -5 0 -7 5 -4 10 3 6 8 10 11
10 2 0 4 -4 4 -10z m1603 4 c-7 -3 -9 -12 -6 -20 7 -18 -11 -18 -26 -1 -13 17
-4 27 23 26 12 0 16 -3 9 -5z m-323 -14 c0 -5 -5 -10 -11 -10 -5 0 -7 5 -4 10
3 6 8 10 11 10 2 0 4 -4 4 -10z m-1050 -10 c0 -5 -2 -10 -4 -10 -3 0 -8 5 -11
10 -3 6 -1 10 4 10 6 0 11 -4 11 -10z m-184 -15 c-16 -12 -22 -12 -28 -2 -6 9
-8 9 -8 -2 0 -8 -3 -12 -6 -8 -11 11 4 22 33 24 27 2 27 2 9 -12z m1094 -14
c0 -6 -4 -13 -10 -16 -5 -3 -10 1 -10 9 0 9 5 16 10 16 6 0 10 -4 10 -9z
m-160 -16 c0 -8 -7 -15 -16 -15 -14 0 -14 3 -4 15 7 8 14 15 16 15 2 0 4 -7 4
-15z m-1190 -15 c0 -5 -5 -10 -11 -10 -5 0 -7 5 -4 10 3 6 8 10 11 10 2 0 4
-4 4 -10z m-410 -31 c0 -6 -4 -7 -10 -4 -5 3 -10 11 -10 16 0 6 5 7 10 4 6 -3
10 -11 10 -16z m2306 -25 c-3 -9 -6 -29 -6 -45 0 -37 -15 -38 -16 -1 0 15 -4
35 -8 45 -6 13 -3 17 14 17 16 0 20 -4 16 -16z m74 -20 c16 50 30 45 29 -11
-2 -47 -2 -47 -9 -13 -4 19 -8 26 -9 14 0 -11 -7 -28 -14 -38 -12 -17 -15 -14
-30 26 -22 57 -20 74 3 24 l18 -38 12 36z m-2390 -9 c0 -12 -19 -12 -23 0 -4
9 -1 12 9 8 7 -3 14 -7 14 -8z m1491 -18 c-12 -12 -45 -1 -37 12 3 5 15 7 27
4 13 -4 17 -9 10 -16z m846 -14 c-3 -10 -5 -4 -5 12 0 17 2 24 5 18 2 -7 2
-21 0 -30z m-1227 17 c0 -5 -7 -7 -16 -3 -14 5 -16 -2 -13 -46 3 -43 1 -51
-13 -51 -15 0 -18 9 -18 51 0 47 -1 50 -21 44 -15 -5 -19 -4 -15 4 9 14 96 15
96 1z m50 -45 c0 -30 -4 -55 -10 -55 -5 0 -10 25 -10 55 0 30 5 55 10 55 6 0
10 -25 10 -55z m272 43 c-20 -20 -13 -55 15 -78 l28 -22 -30 4 c-19 2 -34 12
-44 29 -13 24 -13 29 2 53 10 14 23 26 29 26 9 0 9 -3 0 -12z m300 -10 c5 -35
-3 -88 -13 -88 -5 0 -9 25 -9 55 0 54 15 77 22 33z m298 12 c0 -5 -4 -10 -10
-10 -5 0 -10 5 -10 10 0 6 5 10 10 10 6 0 10 -4 10 -10z m-360 -28 c-14 -5
-12 -46 3 -61 10 -10 8 -12 -8 -9 -14 2 -21 12 -23 36 -4 38 16 72 29 50 5 -7
4 -14 -1 -16z m576 -40 c-16 -16 -17 -16 -10 1 3 9 1 24 -5 31 -9 11 -9 15 1
19 23 8 34 -32 14 -51z m-1026 8 c0 -30 -4 -40 -16 -40 -11 0 -15 8 -13 28 2
15 0 33 -4 40 -6 8 -2 12 12 12 18 0 21 -6 21 -40z m96 29 c3 -6 1 -16 -5 -22
-8 -8 -11 -6 -11 6 0 9 -6 17 -14 17 -26 0 -26 -17 -1 -44 20 -22 21 -26 7
-26 -10 0 -23 5 -30 12 -13 13 -16 50 -5 61 10 11 51 8 59 -4z m292 -33 c2
-27 0 -37 -9 -34 -8 3 -13 17 -14 33 0 18 -7 31 -20 36 -16 7 -14 8 10 6 27
-2 30 -6 33 -41z m184 4 c2 -28 0 -40 -9 -40 -8 0 -13 12 -13 28 0 15 -5 33
-12 40 -9 9 -7 12 9 12 17 0 22 -7 25 -40z m51 21 c-3 -11 4 -28 16 -40 19
-19 19 -21 3 -21 -22 0 -42 19 -42 40 0 9 5 21 12 28 16 16 17 15 11 -7z m46
5 c9 -10 8 -15 -3 -19 -8 -3 -16 2 -19 14 -6 22 6 25 22 5z m91 3 c0 -5 -7 -9
-15 -9 -14 0 -19 -14 -18 -47 1 -7 -5 -13 -12 -13 -11 0 -19 55 -10 71 7 10
55 8 55 -2z m50 -29 c0 -26 -5 -40 -13 -40 -8 0 -12 12 -11 33 2 44 3 47 14
47 6 0 10 -18 10 -40z m66 24 c-3 -9 -6 -27 -6 -40 0 -13 -6 -24 -12 -24 -10
0 -16 53 -9 78 1 1 8 2 17 2 11 0 14 -5 10 -16z m54 -24 c0 -22 -4 -40 -10
-40 -5 0 -10 13 -10 28 0 15 -5 33 -12 40 -9 9 -7 12 10 12 19 0 22 -5 22 -40z
m53 24 c-7 -19 16 -64 34 -64 7 0 13 -8 12 -17 0 -11 -3 -13 -6 -5 -2 6 -11
12 -19 12 -8 0 -14 -6 -15 -12 0 -7 -4 -4 -8 7 -5 12 -4 23 3 27 7 4 4 9 -7
14 -25 9 -21 54 4 54 5 0 6 -7 2 -16z m-2256 -28 c-4 -9 -14 -12 -26 -9 -12 3
-18 9 -15 14 3 5 9 7 14 4 5 -3 12 0 15 6 10 14 19 3 12 -15z m47 3 c-3 -5 7
-20 23 -34 19 -16 23 -24 13 -25 -8 0 -21 9 -28 20 -7 12 -17 18 -22 15 -6 -3
-9 5 -8 18 1 16 7 23 15 20 7 -3 10 -9 7 -14z m1506 -4 c0 -14 -4 -25 -9 -25
-5 0 -11 11 -13 25 -4 17 -1 25 8 25 8 0 14 -11 14 -25z m53 -1 c-3 -9 0 -20
8 -25 11 -7 11 -9 -3 -9 -9 0 -19 4 -22 9 -8 12 3 41 15 41 4 0 6 -7 2 -16z
m-673 -16 c0 -18 -2 -20 -9 -8 -6 8 -7 18 -5 22 9 14 14 9 14 -14z m-970 -12
c0 -2 -7 -9 -15 -16 -12 -10 -15 -10 -15 4 0 9 7 16 15 16 8 0 15 -2 15 -4z
m-40 -32 c0 -8 -5 -12 -10 -9 -6 4 -8 11 -5 16 9 14 15 11 15 -7z m-10 -25
c13 -9 12 -10 -2 -5 -12 3 -18 0 -18 -9 0 -9 -6 -12 -15 -9 -12 5 -13 10 -4
20 14 17 19 17 39 3z m1314 -650 c17 -13 26 -30 26 -49 0 -31 -39 -70 -70 -70
-32 0 -63 34 -63 70 0 22 7 39 22 52 30 23 52 23 85 -3z m1505 -104 c-1 -52
-5 -95 -10 -95 -5 0 -9 33 -9 73 0 39 -3 82 -6 95 -5 16 -2 22 10 22 14 0 16
-13 15 -95z m1 -200 c0 -105 -17 -113 -22 -10 -3 81 -1 95 13 95 5 0 9 -38 9
-85z m-1855 40 c38 -37 34 -47 -22 -60 -28 -6 -34 -3 -44 18 -7 15 -17 23 -25
20 -20 -8 -17 3 8 27 29 27 54 25 83 -5z m696 6 c10 -8 15 -20 12 -27 -3 -8 1
-14 8 -15 8 -1 3 -4 -11 -8 -17 -5 -28 -3 -33 6 -4 7 -17 13 -27 13 -11 0 -20
5 -20 11 0 5 -4 7 -10 4 -5 -3 -10 -2 -10 3 0 11 39 29 60 28 8 -1 22 -7 31
-15z m-723 -97 c27 5 27 5 3 -6 -28 -14 -74 6 -79 35 -3 14 3 11 23 -9 20 -20
32 -25 53 -20z m643 14 c11 -21 11 -22 -4 -9 -10 7 -17 17 -17 22 0 15 9 10
21 -13z m52 -25 c-7 -2 -19 -2 -25 0 -7 3 -2 5 12 5 14 0 19 -2 13 -5z m1186
-139 c-1 -122 -17 -130 -20 -9 -1 71 6 115 17 115 2 0 4 -48 3 -106z m0 -221
c0 -74 -12 -112 -24 -74 -3 11 -3 26 1 32 3 6 6 33 5 60 0 27 3 49 8 49 5 0 9
-30 10 -67z m-1752 20 c9 -24 -5 -26 -31 -5 -14 10 -23 22 -20 25 9 9 45 -5
51 -20z m478 6 c12 -19 -3 -22 -27 -5 l-22 16 21 0 c12 0 25 -5 28 -11z m1275
-171 c-1 -24 -1 -180 -1 -347 1 -199 -2 -308 -9 -315 -7 -7 -10 6 -10 44 1 30
1 181 0 335 -2 345 -2 325 10 325 6 0 10 -19 10 -42z m0 -698 c0 -11 -4 -20
-10 -20 -5 0 -10 9 -10 20 0 11 5 20 10 20 6 0 10 -9 10 -20z m-1205 -20 c4
-6 -220 -11 -645 -12 -515 -2 -650 0 -650 10 0 15 1285 18 1295 2z m613 -115
c1 -65 0 -117 -3 -113 -3 3 -6 53 -6 112 l0 106 -289 0 c-185 0 -291 4 -295
10 -4 7 92 9 292 8 l298 -3 3 -120z m588 68 c-11 -11 -19 6 -11 24 8 17 8 17
12 0 3 -10 2 -21 -1 -24z m-1216 12 c0 -6 -23 -9 -53 -7 -89 6 -108 -50 -28
-78 50 -17 61 -34 34 -49 -14 -7 -28 -5 -51 6 -25 12 -35 13 -46 4 -18 -15
-42 6 -81 73 -15 26 -32 45 -39 43 -6 -2 -14 -27 -18 -56 -3 -29 -11 -58 -17
-64 -6 -6 -11 -18 -11 -26 0 -12 2 -12 18 1 26 23 78 30 92 13 7 -8 26 -14 44
-14 17 1 47 -2 67 -6 30 -6 41 -3 58 14 11 11 21 32 21 45 0 20 -8 27 -42 38
-64 22 -62 40 4 33 74 -9 84 -13 70 -27 -39 -39 10 -108 76 -108 22 0 32 -4
27 -9 -13 -12 -82 -13 -797 -12 l-586 1 0 99 -1 99 630 -1 c412 -1 629 -5 629
-12z m598 -87 l3 -98 -34 0 c-21 0 -41 8 -52 20 -11 12 -13 20 -6 20 7 0 9 5
6 10 -4 6 -12 9 -18 8 -7 -1 -22 3 -35 10 -18 10 -20 17 -12 32 29 54 2 84
-65 74 -38 -5 -46 -10 -42 -24 6 -22 -17 -30 -92 -30 -46 0 -52 2 -41 14 6 8
33 16 58 18 62 4 52 23 -12 23 -51 -1 -71 -16 -83 -63 -7 -29 13 -69 39 -75
11 -3 17 -10 14 -16 -3 -5 2 -12 11 -14 10 -3 1 -5 -19 -6 -28 -1 -38 3 -38
14 0 8 -5 15 -11 15 -6 0 -8 9 -4 20 7 21 -4 27 -21 10 -7 -7 -22 2 -46 29
-40 43 -35 64 12 54 29 -5 70 11 70 28 0 6 -9 8 -20 4 -25 -8 -110 4 -110 16
0 5 115 8 273 7 l272 -3 3 -97z m-173 32 c8 -26 -1 -40 -26 -40 -14 0 -19 7
-19 30 0 23 5 30 19 30 11 0 22 -9 26 -20z m794 -45 c-1 -35 -2 -37 -9 -15 -4
14 -8 39 -9 55 0 23 2 26 9 15 5 -8 9 -33 9 -55z m-1129 -27 c0 -4 -6 -5 -14
-2 -12 5 -36 46 -36 62 1 9 50 -51 50 -60z m260 44 c0 -24 -70 -57 -102 -49
-13 4 -29 15 -36 27 -12 19 -10 20 45 20 32 0 65 5 73 10 20 13 20 13 20 -8z
m-598 -28 c-22 -16 -26 -11 -11 15 9 14 16 16 20 9 4 -7 0 -17 -9 -24z m683
-36 c25 -12 45 -26 45 -30 0 -4 -22 -8 -50 -8 -49 0 -50 1 -50 30 0 17 2 30 5
30 2 0 25 -10 50 -22z m-141 -22 c-3 -9 -10 -16 -15 -16 -14 0 -11 28 4 33 16
6 19 3 11 -17z m926 -1 c0 -14 -4 -25 -10 -25 -5 0 -10 11 -10 25 0 14 5 25
10 25 6 0 10 -11 10 -25z m-2387 -42 c-13 -2 -33 -2 -45 0 -13 2 -3 4 22 4 25
0 35 -2 23 -4z m355 0 c-53 -2 -143 -2 -200 0 -57 1 -13 3 97 3 110 0 156 -2
103 -3z m780 0 c-126 -2 -330 -2 -455 0 -126 1 -23 2 227 2 250 0 353 -1 228
-2z m470 0 c-32 -2 -86 -2 -120 0 -35 2 -9 3 57 3 66 0 94 -1 63 -3z m89 1
c-3 -3 -12 -4 -19 -1 -8 3 -5 6 6 6 11 1 17 -2 13 -5z m693 -119 c0 -69 -4
-125 -9 -125 -4 0 -8 56 -8 125 -1 69 3 125 8 125 5 0 9 -56 9 -125z m-2802
-57 c7 -7 12 -19 12 -27 0 -9 -6 -7 -20 9 -11 13 -20 25 -20 27 0 7 17 2 28
-9z m2607 -29 c4 -11 4 -23 1 -26 -3 -4 -6 0 -6 7 0 8 -10 25 -22 38 l-23 25
22 -12 c12 -6 25 -20 28 -32z m195 -113 c0 -3 -4 -8 -10 -11 -5 -3 -10 -1 -10
4 0 6 5 11 10 11 6 0 10 -2 10 -4z m0 -117 c0 -6 -4 -7 -10 -4 -5 3 -10 11
-10 16 0 6 5 7 10 4 6 -3 10 -11 10 -16z"/>
<path d="M1100 3730 c0 -6 7 -10 15 -10 8 0 15 2 15 4 0 2 -7 6 -15 10 -8 3
-15 1 -15 -4z"/>
<path d="M1232 3630 c-2 -29 13 -58 25 -47 4 5 2 11 -4 15 -6 4 -13 18 -16 32
l-4 25 -1 -25z"/>
<path d="M2140 3690 c-9 -6 -10 -10 -3 -10 6 0 15 5 18 10 8 12 4 12 -15 0z"/>
<path d="M1005 3460 c-3 -5 -1 -10 4 -10 6 0 11 5 11 10 0 6 -2 10 -4 10 -3 0
-8 -4 -11 -10z"/>
<path d="M923 3335 c0 -8 4 -15 9 -15 4 0 8 4 8 9 0 6 -4 12 -8 15 -5 3 -9 -1
-9 -9z"/>
<path d="M965 3300 c-3 -5 -1 -10 4 -10 6 0 11 5 11 10 0 6 -2 10 -4 10 -3 0
-8 -4 -11 -10z"/>
<path d="M1015 3260 c3 -5 8 -10 11 -10 2 0 4 5 4 10 0 6 -5 10 -11 10 -5 0
-7 -4 -4 -10z"/>
<path d="M2147 3563 c-4 -3 -7 -11 -7 -17 0 -6 5 -5 12 2 6 6 9 14 7 17 -3 3
-9 2 -12 -2z"/>
<path d="M1305 3380 c3 -5 8 -10 11 -10 2 0 4 5 4 10 0 6 -5 10 -11 10 -5 0
-7 -4 -4 -10z"/>
<path d="M1311 3346 c-16 -19 -2 -50 15 -32 6 6 8 20 4 30 -5 16 -7 16 -19 2z"/>
<path d="M1330 3293 c0 -5 11 -9 25 -9 14 -1 25 2 25 7 0 5 -11 9 -25 9 -14 0
-25 -3 -25 -7z"/>
<path d="M1301 3174 c0 -11 3 -14 6 -6 3 7 2 16 -1 19 -3 4 -6 -2 -5 -13z"/>
<path d="M590 3460 c0 -5 5 -10 10 -10 6 0 10 5 10 10 0 6 -4 10 -10 10 -5 0
-10 -4 -10 -10z"/>
<path d="M1650 2396 c0 -3 9 -10 20 -16 11 -6 20 -8 20 -6 0 3 -9 10 -20 16
-11 6 -20 8 -20 6z"/>
<path d="M777 843 c-13 -12 -7 -32 12 -38 15 -4 18 -14 16 -48 -3 -46 16 -77
47 -77 33 0 86 27 92 48 6 18 9 17 40 -14 39 -39 64 -42 97 -14 l24 19 -35 -5
c-27 -4 -40 -1 -60 18 l-25 23 60 5 c33 3 66 9 73 13 8 6 12 2 12 -13 0 -11
11 -32 25 -45 29 -30 95 -35 116 -9 11 14 9 15 -22 9 -56 -10 -99 47 -70 94 8
12 16 13 45 4 20 -6 45 -9 56 -6 19 5 20 0 20 -62 0 -48 3 -66 12 -63 7 3 15
14 18 26 l5 22 37 -26 c31 -22 39 -24 58 -14 18 10 24 9 31 -1 6 -10 11 -11
20 -2 8 8 8 20 -2 46 -20 58 13 98 62 74 20 -11 24 -21 27 -65 4 -70 26 -65
30 6 3 46 6 53 28 58 48 12 81 -54 49 -102 -24 -38 -12 -40 19 -4 32 39 35 89
6 115 -18 16 -42 20 -90 13 -8 -1 -31 1 -51 6 -67 14 -128 -39 -116 -101 6
-32 -18 -29 -59 6 -28 25 -31 31 -18 41 19 16 18 50 -1 50 -9 0 -15 -9 -15
-24 0 -13 -6 -28 -13 -34 -10 -8 -12 -2 -9 28 l4 38 -80 -2 c-72 -1 -83 -4
-102 -26 -19 -22 -31 -25 -91 -26 -38 -1 -69 2 -69 6 0 17 33 27 66 20 23 -5
37 -4 44 5 8 9 6 14 -6 19 -43 17 -109 -4 -120 -37 -6 -20 -7 -20 -24 3 -13
17 -32 25 -73 30 -30 5 -64 11 -74 14 -11 3 -22 3 -26 -1z m135 -60 c36 -33
13 -77 -38 -71 -21 2 -30 10 -35 31 -4 16 -5 35 -2 43 7 19 52 18 75 -3z"/>
<path d="M2581 828 c-8 -20 -10 -21 -16 -5 -5 12 -18 17 -46 17 -34 0 -38 -2
-30 -17 5 -10 12 -26 15 -36 8 -25 25 -12 19 13 -3 12 0 20 6 20 7 0 11 -8 9
-17 -2 -12 6 -19 30 -24 32 -6 32 -6 32 32 0 44 -7 50 -19 17z"/>
</g>
</svg>
