<?xml version="1.0" standalone="no"?>
<!DOCTYPE svg PUBLIC "-//W3C//DTD SVG 20010904//EN"
 "http://www.w3.org/TR/2001/REC-SVG-20010904/DTD/svg10.dtd">
<svg version="1.0" xmlns="http://www.w3.org/2000/svg"
 width="230.000000pt" height="320.000000pt" viewBox="0 0 230.000000 320.000000"
 preserveAspectRatio="xMidYMid meet">

<g transform="translate(0.000000,320.000000) scale(0.100000,-0.100000)"
fill="#000000" stroke="none">
<path d="M21 3178 c-21 -22 -21 -23 -21 -1579 l0 -1558 22 -21 c22 -20 29 -20
1129 -20 l1108 0 21 22 c20 22 20 26 20 1578 0 1328 -2 1559 -14 1576 -14 19
-39 19 -1130 22 l-1115 2 -20 -22z m2178 -1575 c-1 -824 -3 -1490 -6 -1480 -2
9 -11 17 -19 17 -8 0 -12 -4 -9 -10 4 -6 -11 -10 -37 -10 -34 1 -39 3 -25 11
9 5 22 7 27 4 12 -7 56 32 47 41 -4 4 -2 13 4 20 14 17 1 80 -13 66 -6 -6 -17
-8 -24 -5 -19 7 -18 -11 1 -27 18 -15 20 -30 3 -30 -6 0 -8 3 -5 7 4 3 0 11
-9 17 -19 15 -26 122 -6 119 8 -2 12 9 12 32 0 21 5 35 13 36 10 0 10 2 0 6
-7 2 -13 11 -13 19 0 8 -4 14 -10 14 -5 0 -10 6 -10 14 0 8 -4 18 -10 21 -6 3
-7 -1 -4 -9 4 -10 1 -16 -8 -16 -7 0 -15 11 -16 26 -1 14 2 23 8 19 17 -11 11
11 -10 35 -21 24 -24 19 -20 -29 1 -14 -2 -21 -9 -17 -6 4 -10 30 -9 57 0 28
4 46 8 39 5 -8 9 -7 13 3 3 9 -1 18 -9 21 -8 3 -14 15 -14 27 0 12 3 19 7 16
8 -9 44 23 37 34 -2 4 -10 6 -18 3 -9 -4 -11 4 -8 27 3 22 1 30 -7 25 -6 -4
-11 -1 -11 8 0 29 17 17 40 -29 17 -34 29 -45 47 -45 18 0 23 5 23 24 0 14 4
27 10 31 5 3 8 -14 6 -42 -2 -44 -5 -48 -26 -45 -19 3 -21 1 -15 -15 5 -10 9
-34 9 -54 0 -33 1 -35 23 -25 26 12 25 9 27 168 l1 118 -33 0 c-23 0 -31 -4
-26 -12 5 -7 2 -9 -9 -5 -11 4 -14 2 -10 -8 3 -8 9 -13 13 -10 5 3 3 -6 -3
-20 -13 -27 -16 -29 -36 -16 -18 12 -5 32 16 24 15 -6 16 -5 3 9 -8 9 -17 12
-18 7 -2 -5 -9 -6 -14 -3 -7 4 -8 2 -4 -4 4 -7 1 -12 -8 -12 -8 0 -17 6 -19
13 -3 6 -6 -97 -6 -230 l-1 -243 -207 -2 c-171 -3 -208 -6 -208 -17 0 -8 8
-15 18 -17 9 -1 17 2 17 7 0 5 -5 9 -12 9 -6 0 -8 3 -5 6 12 12 35 -16 30 -36
-5 -21 -23 -28 -23 -10 0 6 -4 10 -10 10 -14 0 -13 -33 2 -48 9 -9 7 -12 -11
-12 -12 0 -19 4 -16 10 3 6 1 10 -5 10 -8 0 -8 6 0 20 7 14 7 20 0 20 -5 0
-10 -4 -10 -10 0 -5 -6 -10 -14 -10 -7 0 -19 -7 -26 -15 -7 -9 -15 -13 -17
-11 -3 3 -12 -1 -19 -7 -51 -42 -57 -57 -24 -57 11 0 20 5 20 10 0 6 -5 10
-12 10 -6 0 -9 3 -6 6 8 8 78 -23 78 -35 0 -17 -25 -18 -37 -2 -8 11 -12 12
-13 4 0 -16 -60 -18 -60 -2 0 5 -5 7 -12 3 -8 -5 -9 -2 -5 9 3 10 2 17 -3 17
-6 0 -10 -9 -10 -20 0 -13 -7 -20 -20 -20 -13 0 -18 -5 -14 -15 4 -10 0 -15
-15 -15 -13 0 -19 5 -15 14 9 23 -14 28 -33 7 -16 -19 -30 -20 -235 -21 -140
0 -218 3 -218 10 0 5 4 10 10 10 5 0 7 7 4 15 -6 15 2 17 64 18 21 0 22 1 7
23 -8 13 -15 32 -15 43 0 16 7 19 46 19 28 0 50 6 55 14 5 7 4 14 -1 16 -13 5
-13 22 -1 22 5 0 14 -13 19 -29 9 -25 8 -29 -4 -24 -9 3 -14 -1 -14 -12 0 -9
5 -13 11 -9 8 4 8 0 0 -15 -14 -25 -19 -27 -17 -5 0 9 -5 19 -13 22 -9 3 -11
-1 -7 -15 4 -12 1 -25 -8 -32 -12 -10 -14 -8 -12 14 4 32 -10 43 -17 14 -8
-30 2 -49 25 -49 10 0 16 4 13 10 -9 14 8 13 23 -2 9 -9 12 -9 12 0 0 7 5 12
11 12 5 0 7 -5 4 -10 -3 -6 1 -10 9 -10 9 0 16 5 16 11 0 8 4 8 13 0 10 -8 18
-7 29 2 12 10 11 15 -9 35 -19 17 -23 19 -21 6 2 -9 -4 -18 -12 -19 -11 -2
-15 8 -15 41 0 35 4 44 17 44 9 0 22 8 28 18 9 15 10 14 5 -5 -4 -15 -2 -23 5
-23 8 0 10 -9 7 -22 -3 -13 1 -32 8 -42 11 -14 12 -23 4 -33 -14 -16 3 -17 19
-1 9 9 12 9 12 0 0 -7 9 -12 21 -12 11 0 18 4 14 9 -3 6 6 8 21 5 15 -3 23 -1
20 5 -4 5 -2 12 4 16 6 3 14 -4 19 -17 8 -19 10 -20 10 -4 1 18 2 18 29 1 15
-10 24 -14 20 -10 -9 9 9 45 22 45 6 0 10 -7 10 -16 0 -9 -5 -12 -12 -8 -7 4
-8 3 -4 -4 17 -27 53 -11 47 22 -1 4 3 13 8 20 6 7 8 22 4 34 -4 18 -8 20 -19
11 -16 -13 -19 -33 -4 -24 14 8 13 -8 -1 -22 -17 -17 -39 -4 -39 21 0 12 -5
27 -12 34 -9 9 -9 15 1 24 11 10 13 10 7 1 -4 -7 -2 -13 3 -13 6 0 11 7 11 15
0 10 -10 15 -30 15 -31 0 -39 -17 -19 -37 8 -8 7 -13 -2 -18 -8 -5 -10 -4 -5
4 4 6 0 14 -8 17 -9 3 -16 12 -16 20 0 12 -82 14 -517 14 l-518 -1 32 -28 c17
-16 29 -31 27 -34 -2 -2 10 -4 28 -5 18 0 34 -6 36 -11 2 -6 8 -9 13 -5 8 5
11 -1 13 -35 1 -15 36 -25 36 -10 0 4 7 6 16 2 8 -3 13 -11 10 -19 -6 -17 22
-23 57 -11 15 5 37 7 49 4 12 -4 29 -1 37 6 12 10 13 9 6 -2 -6 -11 -4 -13 7
-8 9 3 21 0 27 -6 9 -9 11 -8 5 6 -7 19 15 21 28 3 4 -6 13 -5 21 3 13 10 15
9 10 -11 -3 -13 -2 -20 2 -15 5 4 9 31 9 60 1 37 5 51 14 49 9 -2 11 2 6 10
-13 20 -13 37 -2 45 6 3 8 1 4 -5 -3 -6 -2 -13 3 -16 5 -3 11 0 14 7 2 7 19
14 37 15 20 2 29 -1 25 -8 -3 -6 -12 -7 -18 -4 -7 4 -8 3 -4 -2 5 -5 14 -9 20
-9 7 0 11 -8 11 -18 -1 -11 5 -17 17 -17 25 0 35 -26 19 -45 -8 -10 -9 -15 -1
-15 17 0 26 51 10 61 -12 8 -12 11 1 19 22 14 33 12 26 -5 -4 -10 1 -15 14
-15 16 0 20 -7 20 -30 0 -16 -4 -30 -10 -30 -5 0 -10 12 -10 26 0 15 -4 23
-10 19 -6 -4 -8 -15 -5 -26 4 -12 2 -19 -7 -19 -8 0 -23 -7 -34 -15 -10 -9
-13 -14 -5 -13 7 2 16 -3 18 -9 3 -7 0 -13 -6 -13 -6 0 -8 -7 -5 -15 5 -13
-39 -15 -345 -15 -207 0 -351 4 -351 9 0 5 10 12 23 14 l22 4 -23 2 c-12 0
-25 -6 -28 -14 -4 -8 -15 -15 -25 -15 -18 0 -19 11 -19 250 l0 250 24 0 c29 0
39 20 17 37 -22 17 -29 16 -34 -4 -3 -10 -5 25 -6 78 -1 79 2 98 15 103 8 3
12 11 8 17 -4 8 -9 7 -15 -2 -4 -8 -8 294 -9 671 0 567 2 681 13 660 7 -14 9
-26 5 -28 -17 -7 -7 -20 12 -15 14 4 20 0 20 -10 0 -9 9 -19 20 -22 19 -6 29
-26 12 -24 -19 3 -33 -2 -27 -11 8 -13 45 6 45 23 0 7 -13 23 -30 35 -16 13
-30 29 -30 37 0 8 -4 15 -10 15 -5 0 -7 6 -4 14 3 7 -2 16 -10 19 -10 4 -16
19 -16 37 0 18 4 29 10 25 6 -3 10 -2 10 4 0 5 3 16 6 25 3 9 1 16 -6 16 -6 0
-9 -4 -5 -9 3 -5 1 -12 -5 -16 -6 -4 -10 19 -10 65 0 53 3 70 13 67 6 -2 11
-9 10 -14 -1 -5 10 -10 24 -11 15 -1 23 1 19 5 -4 5 -11 8 -14 8 -4 0 -16 7
-28 15 -15 11 -21 27 -22 60 -1 34 1 40 8 25 5 -11 9 -16 9 -11 1 5 9 2 19 -5
15 -13 16 -12 4 3 -14 17 -9 38 8 38 5 0 11 -8 13 -17 2 -10 3 -6 1 10 -2 19
1 27 11 27 8 0 15 -7 15 -16 0 -8 4 -13 9 -9 5 3 8 18 6 33 -2 15 -4 35 -4 45
-1 9 -6 17 -12 17 -5 0 -7 -4 -4 -10 3 -5 1 -10 -6 -10 -7 0 -4 -7 7 -15 18
-14 18 -15 -9 -11 -15 3 -25 1 -22 -5 4 -5 1 -9 -4 -9 -6 0 -11 6 -11 13 0 8
-4 7 -10 -3 -5 -8 -10 -10 -11 -5 0 6 -5 -1 -9 -15 -5 -17 -8 1 -9 58 -1 45 3
82 7 82 4 0 8 -10 7 -22 0 -13 5 -25 10 -26 6 -2 15 -8 22 -13 7 -7 14 -6 18
1 4 6 16 8 28 5 18 -5 19 -4 7 5 -10 8 -11 13 -4 16 13 6 6 54 -8 54 -5 0 -7
-3 -5 -7 3 -5 0 -19 -5 -33 -9 -23 -10 -24 -20 -6 -8 13 -7 20 2 26 17 11 2
33 -17 25 -13 -4 -13 -3 -4 9 6 7 8 22 4 31 -4 13 -3 16 5 11 7 -4 12 -16 12
-27 0 -19 17 -25 35 -11 13 9 16 62 4 62 -5 0 -12 -7 -15 -15 -5 -11 -10 -13
-19 -5 -7 6 -21 7 -30 3 -14 -5 -17 -3 -12 10 3 9 2 17 -2 17 -5 0 -11 -6 -14
-12 -3 -7 -5 54 -6 135 0 82 -4 153 -7 158 -3 5 419 9 1040 9 l1046 0 -1
-1497z m-2059 1140 c0 -5 -5 -15 -10 -23 -8 -12 -10 -11 -10 8 0 12 5 22 10
22 6 0 10 -3 10 -7z m24 -69 c3 -8 2 -12 -4 -9 -6 3 -10 10 -10 16 0 14 7 11
14 -7z m-4 -114 c0 -5 -5 -10 -11 -10 -5 0 -7 5 -4 10 3 6 8 10 11 10 2 0 4
-4 4 -10z m2010 -1966 c0 -8 -4 -14 -10 -14 -5 0 -10 9 -10 21 0 11 5 17 10
14 6 -3 10 -13 10 -21z m-80 -184 c0 8 2 11 6 8 3 -3 -1 -19 -8 -36 -12 -28
-14 -29 -28 -14 -13 14 -12 15 3 9 9 -3 17 -2 17 3 0 6 -4 10 -10 10 -5 0 -10
7 -10 16 0 14 3 14 15 4 12 -10 15 -10 15 0z m40 -17 c0 -22 -2 -25 -10 -13
-13 20 -13 40 0 40 6 0 10 -12 10 -27z m-1675 -83 c16 -6 24 -6 20 0 -6 9 64
5 73 -5 3 -3 11 0 17 5 9 7 16 6 23 -3 9 -10 5 -13 -17 -11 -16 1 -35 -3 -42
-8 -11 -8 -10 -9 4 -4 11 3 17 0 17 -9 0 -8 4 -15 10 -15 5 0 7 6 4 14 -4 11
0 13 15 9 12 -3 21 -9 21 -14 0 -19 38 -8 43 12 3 13 10 18 17 14 8 -5 8 -11
2 -17 -5 -5 -6 -24 -2 -43 6 -28 5 -34 -12 -38 -14 -4 -18 -1 -14 9 3 8 0 14
-7 14 -8 0 -6 4 3 10 13 8 12 10 -3 10 -14 0 -17 -5 -12 -20 4 -13 2 -20 -7
-21 -7 0 -23 -2 -36 -5 -17 -3 -21 -1 -15 8 4 7 -5 5 -20 -5 -16 -10 -34 -16
-40 -13 -7 2 -5 5 4 5 19 1 29 21 29 59 0 19 -3 23 -9 13 -5 -7 -6 -21 -4 -31
10 -39 -56 -38 -74 2 -8 18 -6 26 11 41 12 10 16 16 9 13 -6 -4 -16 1 -20 9
-8 14 -12 13 -28 -5 -11 -13 -15 -24 -10 -28 13 -9 39 -42 33 -42 -3 0 -26 20
-52 44 -33 30 -44 45 -35 49 23 9 76 8 104 -3z m183 -16 c-22 -25 -34 -32 -23
-14 4 6 2 17 -4 24 -9 10 -5 13 18 14 l30 1 -21 -25z m90 14 c-2 -7 -12 -20
-23 -30 -13 -11 -15 -17 -7 -18 19 0 11 -55 -8 -55 -9 0 -15 13 -18 38 -2 28
0 37 12 37 8 0 18 9 21 20 7 21 27 28 23 8z m147 2 c-27 -12 -35 -12 -35 0 0
6 12 10 28 9 24 0 25 -1 7 -9z m88 -9 c15 -8 27 -18 27 -23 0 -11 -8 -10 -23
2 -7 6 -21 18 -32 26 -22 17 -14 15 28 -5z m202 9 c3 -5 1 -10 -4 -10 -6 0
-11 5 -11 10 0 6 2 10 4 10 3 0 8 -4 11 -10z m89 -6 c3 -7 -2 -18 -10 -24 -9
-8 -14 -9 -14 -2 0 6 6 12 13 15 6 3 2 4 -10 4 -12 -1 -19 -5 -16 -11 3 -5 2
-6 -4 -3 -5 3 -10 0 -10 -8 0 -8 4 -15 9 -15 4 0 8 -13 8 -28 0 -23 -4 -28
-22 -27 -28 2 -44 50 -21 60 9 3 13 8 10 11 -9 9 26 39 45 40 10 0 20 -6 22
-12z m436 6 c0 -5 -2 -10 -4 -10 -3 0 -8 5 -11 10 -3 6 -1 10 4 10 6 0 11 -4
11 -10z m30 -16 c0 -8 7 -14 15 -14 18 0 20 -17 3 -22 -7 -3 -18 6 -25 20 -16
29 -17 45 -3 37 6 -3 10 -13 10 -21z m67 -56 c-9 -6 -9 -8 1 -8 6 0 12 -8 12
-17 0 -14 -4 -12 -17 7 -10 14 -17 27 -17 30 1 3 -2 16 -7 30 -9 24 -8 23 16
-5 17 -21 21 -31 12 -37z m-1353 44 c3 -5 -1 -9 -9 -9 -8 0 -12 4 -9 9 3 4 7
8 9 8 2 0 6 -4 9 -8z m866 -8 c0 -11 6 -15 18 -12 15 4 18 0 15 -21 -2 -14 0
-20 3 -13 3 6 10 9 15 6 13 -8 -9 -34 -27 -34 -8 0 -14 11 -15 28 l-1 27 -8
-30 c-4 -20 -9 -25 -13 -15 -11 30 -16 67 -10 74 11 11 23 6 23 -10z m395 6
c3 -5 1 -10 -4 -10 -6 0 -11 5 -11 10 0 6 2 10 4 10 3 0 8 -4 11 -10z m340 0
c3 -5 -1 -10 -10 -10 -9 0 -13 5 -10 10 3 6 8 10 10 10 2 0 7 -4 10 -10z m65
-17 c0 -13 -3 -13 -15 -3 -12 10 -16 9 -21 -4 -3 -9 -10 -16 -15 -16 -5 0 -2
11 7 24 16 26 44 25 44 -1z m-270 7 c0 -5 -2 -10 -4 -10 -3 0 -8 5 -11 10 -3
6 -1 10 4 10 6 0 11 -4 11 -10z m-567 -9 c11 -1 8 -51 -3 -51 -5 0 -13 0 -17
0 -5 -1 -11 12 -14 28 -5 24 -3 29 10 27 9 -2 19 -4 24 -4z m457 -32 c0 -6 -4
-7 -10 -4 -5 3 -10 11 -10 16 0 6 5 7 10 4 6 -3 10 -11 10 -16z m30 -9 c-18
-11 -24 -6 -16 16 5 14 9 15 19 5 9 -9 9 -14 -3 -21z m210 0 c0 -5 -5 -10 -11
-10 -5 0 -7 5 -4 10 3 6 8 10 11 10 2 0 4 -4 4 -10z m73 -15 c-3 -9 -8 -14
-10 -11 -3 3 -2 9 2 15 9 16 15 13 8 -4z m-449 -10 c-4 -8 -8 -15 -10 -15 -2
0 -4 7 -4 15 0 8 4 15 10 15 5 0 7 -7 4 -15z m188 -14 c-4 -10 -1 -13 11 -8
11 4 17 1 17 -7 0 -9 -18 -13 -66 -12 -43 0 -68 -5 -74 -13 -6 -10 -9 -10 -12
-1 -2 7 -16 13 -31 13 -16 0 -27 5 -27 13 0 8 8 11 22 9 12 -3 26 1 30 8 4 6
8 7 8 2 0 -17 66 -17 79 -1 16 19 51 17 43 -3z m303 3 c8 11 15 13 20 7 3 -6
1 -11 -5 -11 -6 0 -8 -4 -5 -10 3 -5 3 -11 -2 -11 -35 -6 -54 -5 -59 2 -3 5 2
9 10 9 10 0 13 6 10 18 -5 14 -3 14 7 -2 11 -18 13 -18 24 -2z m-74 -8 c5 3 9
0 9 -5 0 -6 -7 -11 -15 -11 -8 0 -15 8 -14 18 0 10 3 12 6 4 2 -6 9 -10 14 -6z
m-53 -5 c12 -1 22 -6 22 -12 0 -7 -16 -9 -47 -5 -28 3 -52 1 -60 -6 -9 -7 -13
-7 -13 0 0 6 -9 9 -20 7 -11 -2 -20 2 -20 9 0 8 17 11 58 10 31 -2 67 -3 80
-3z m182 -11 c-19 -13 -30 -13 -30 0 0 6 10 10 23 10 18 0 19 -2 7 -10z m-343
-36 c-3 -3 -12 -4 -19 -1 -8 3 -5 6 6 6 11 1 17 -2 13 -5z"/>
<path d="M260 3086 c0 -8 48 -12 66 -6 13 5 5 8 -23 8 -24 0 -43 -1 -43 -2z"/>
<path d="M430 3080 c0 -5 5 -10 10 -10 6 0 10 5 10 10 0 6 -4 10 -10 10 -5 0
-10 -4 -10 -10z"/>
<path d="M684 3055 c0 -18 3 -32 8 -29 4 3 8 17 8 32 1 26 1 26 15 8 8 -10 12
-22 10 -27 -9 -13 16 -22 28 -10 8 8 8 11 -1 11 -7 0 -12 5 -12 11 0 5 5 7 10
4 6 -3 10 -2 10 4 0 5 -8 12 -17 14 -10 3 -3 5 15 6 29 1 33 -3 39 -30 3 -17
11 -28 17 -26 8 3 11 -4 8 -22 -3 -22 0 -27 17 -27 12 0 21 4 21 8 0 4 -7 8
-15 8 -19 0 -19 14 0 30 20 16 32 6 31 -27 -1 -25 -5 -28 -36 -28 -31 0 -36 4
-41 30 -5 25 -7 27 -14 12 -4 -10 -2 -23 4 -31 8 -9 8 -16 2 -20 -6 -4 -15 3
-21 14 -6 11 -16 18 -23 15 -7 -4 -3 1 7 9 19 16 19 16 -2 16 -16 0 -22 -6
-22 -21 0 -15 5 -19 15 -15 8 3 15 1 15 -4 0 -6 -4 -10 -10 -10 -5 0 -10 -5
-10 -11 0 -8 5 -8 15 1 12 10 15 10 15 -2 0 -7 -9 -14 -20 -15 -13 -1 -20 4
-20 15 0 15 -2 15 -10 2 -9 -13 -10 -13 -11 0 -1 8 -1 24 0 35 1 18 1 18 -9 3
-6 -10 -18 -22 -28 -28 -14 -9 -14 -10 6 -5 15 4 22 2 22 -7 0 -23 -40 -19
-51 5 l-10 22 5 -22 c3 -17 -1 -23 -15 -23 -21 0 -26 16 -6 23 6 3 -4 5 -23 6
-28 0 -31 -2 -15 -9 38 -15 -7 -20 -188 -17 -97 1 -177 -2 -177 -6 0 -5 -9 -5
-20 -2 -12 4 -20 2 -20 -5 0 -6 4 -9 9 -6 5 3 12 -4 16 -17 l8 -22 4 23 c5 24
13 28 29 12 6 -6 117 -10 277 -12 147 0 270 -5 273 -10 3 -4 10 -5 17 -1 11 6
87 11 87 5 0 -2 -4 -12 -10 -22 -7 -14 -6 -20 7 -24 9 -4 18 -4 21 -1 3 3 0 5
-6 5 -7 0 -12 4 -12 9 0 10 47 3 79 -12 19 -10 25 -8 37 8 8 10 14 15 14 11 0
-5 7 -3 15 4 12 10 15 10 15 -4 0 -9 -3 -15 -7 -15 -20 3 -34 -2 -29 -10 4 -5
31 -8 61 -7 31 2 58 -1 61 -6 3 -4 41 -8 84 -8 49 0 82 -4 86 -12 4 -7 3 -8
-4 -4 -7 4 -12 3 -12 -2 0 -6 7 -13 16 -16 9 -4 15 -9 12 -11 -2 -3 -22 4 -43
15 -39 20 -85 27 -85 12 0 -10 -130 1 -150 13 -4 3 -13 -2 -20 -10 -9 -11 -17
-12 -32 -4 -11 6 -31 13 -44 15 -23 4 -24 3 -12 -18 7 -13 11 -26 10 -30 -2
-10 39 -22 65 -19 13 1 31 -5 40 -15 17 -17 17 -17 -4 -12 -16 4 -23 2 -23 -8
0 -18 -9 -18 -31 2 -15 14 -17 14 -15 -3 2 -30 48 -71 77 -69 18 1 25 -2 22
-11 -3 -7 -1 -13 3 -14 5 0 16 -2 24 -4 54 -14 65 -15 46 -7 -11 5 -15 11 -9
15 5 3 31 -5 58 -19 26 -14 50 -22 54 -17 10 14 51 15 69 1 10 -8 13 -8 9 -1
-10 17 12 28 26 13 9 -10 9 -11 -3 -5 -12 7 -13 6 -2 -6 8 -9 15 -10 20 -4 7
10 23 16 54 18 10 1 18 5 18 9 0 4 8 4 18 1 15 -6 16 -5 2 13 -9 12 -5 11 13
-5 15 -14 27 -19 27 -13 0 6 -5 14 -11 18 -7 4 -2 11 13 19 25 13 49 8 27 -6
-12 -7 -11 -11 4 -26 12 -13 17 -14 17 -4 0 9 7 6 19 -7 21 -25 52 -32 32 -8
-9 11 -8 15 6 20 15 6 15 8 3 16 -8 5 -12 12 -8 15 3 3 12 0 19 -7 20 -19 51
-19 66 0 8 11 12 13 13 4 0 -10 4 -10 23 0 12 7 25 11 29 10 3 -1 9 5 12 13 3
9 0 12 -10 8 -8 -3 -14 -2 -12 3 2 5 -2 10 -7 12 -6 2 -12 -7 -15 -19 -5 -20
-7 -20 -19 -5 -17 20 -35 21 -27 1 6 -16 -11 -20 -32 -6 -21 13 13 34 44 27
20 -5 27 -3 31 13 3 12 9 18 14 15 5 -3 9 0 9 5 0 6 -4 11 -10 11 -5 0 -7 6
-4 14 3 7 -6 23 -21 34 l-26 20 31 22 c17 12 34 19 38 16 3 -4 0 -11 -7 -15
-10 -6 -12 -19 -7 -45 4 -20 10 -36 14 -36 4 0 24 15 44 34 35 32 36 34 21 56
-14 19 -22 22 -62 17 -26 -3 -52 -7 -58 -9 -6 -2 -11 2 -12 7 -1 10 3 11 39
14 13 1 17 6 14 16 -4 10 -11 12 -22 6 -11 -6 -21 -4 -30 5 -11 12 -6 14 31
14 24 0 65 -3 91 -6 36 -5 44 -9 35 -20 -6 -7 -17 -10 -25 -7 -8 3 -14 0 -14
-5 0 -6 9 -14 21 -17 17 -6 20 -13 17 -41 -2 -19 0 -34 4 -34 4 0 8 5 8 10 0
6 5 10 11 10 5 0 7 -4 4 -10 -8 -13 1 -13 26 0 15 8 19 7 19 -4 0 -7 -8 -17
-17 -21 -17 -6 -17 -7 1 -21 11 -8 14 -14 8 -14 -14 0 -16 -26 -2 -35 6 -4 7
1 3 12 -6 16 -5 17 12 3 11 -9 16 -10 11 -2 -4 7 -2 12 7 12 8 0 24 9 36 19
13 11 30 17 39 14 15 -4 15 -3 2 6 -25 18 -18 91 10 91 4 0 6 -32 6 -72 -1
-54 -5 -72 -16 -76 -13 -5 -13 -3 0 13 14 17 13 18 -4 8 -11 -6 -21 -17 -22
-24 -2 -8 -5 -24 -8 -36 -7 -31 2 -29 14 2 15 40 36 31 39 -16 2 -36 0 -41
-16 -34 -39 15 -53 14 -53 -4 0 -10 6 -18 14 -18 8 0 12 6 9 14 -3 9 0 11 10
7 9 -3 13 -12 10 -20 -3 -7 2 -17 11 -20 20 -8 21 -44 1 -44 -15 0 -35 -30
-35 -52 1 -8 6 -6 15 6 8 11 15 16 15 10 0 -5 5 -2 10 6 8 12 10 11 10 -6 0
-11 -6 -26 -12 -33 -10 -11 -10 -13 0 -7 7 4 12 1 12 -7 0 -14 -18 -23 -69
-36 -13 -3 -26 -11 -28 -17 -5 -14 45 -10 60 5 21 21 37 12 35 -18 -1 -16 -6
-27 -10 -25 -12 8 -9 -11 4 -24 11 -11 2 -17 -23 -14 -3 1 -12 -11 -18 -25
-11 -23 -10 -25 9 -20 11 3 20 1 20 -5 0 -6 -11 -8 -25 -6 -28 6 -31 2 -12
-16 13 -13 38 -10 48 7 4 5 7 -78 7 -185 l0 -194 -26 -17 c-15 -9 -22 -17 -15
-17 6 0 15 5 18 10 9 14 25 12 25 -3 0 -7 -9 -18 -21 -25 -12 -8 -18 -9 -14
-3 10 17 1 13 -17 -8 -14 -17 -14 -20 -2 -25 9 -3 12 -1 9 4 -4 6 3 9 17 7 22
-4 23 -8 23 -96 0 -50 -1 -91 -3 -91 -2 0 -13 5 -25 11 -15 7 -12 2 8 -15 19
-16 25 -25 15 -26 -13 0 -13 -1 0 -11 13 -9 13 -10 0 -6 -8 2 -14 11 -12 21 4
23 -49 21 -78 -2 -33 -27 -18 -46 30 -38 55 9 70 0 70 -42 0 -19 7 -44 17 -54
15 -17 14 -18 -18 -19 -30 -2 -31 -2 -6 -6 31 -5 36 -19 10 -27 -13 -3 -12 -4
3 -3 11 1 28 -4 37 -12 22 -17 22 2 1 23 -8 9 -11 16 -5 16 6 0 11 7 11 15 0
8 8 15 18 16 13 0 12 3 -6 12 -22 10 -23 15 -20 86 2 42 8 82 12 90 6 9 5 12
-1 8 -11 -7 -9 85 2 103 4 6 1 10 -5 10 -7 0 -9 19 -5 58 8 69 6 538 -2 558
-3 8 1 14 11 14 9 0 16 4 16 10 0 16 64 39 72 26 4 -6 7 30 6 79 -1 51 -3 70
-5 42 -4 -46 -22 -57 -24 -14 0 12 -3 16 -6 10 -7 -20 -21 -15 -33 10 -11 22
-11 22 5 2 16 -19 16 -19 12 10 -7 42 -17 65 -29 65 -6 0 -8 -7 -4 -15 3 -8 1
-15 -4 -15 -5 0 -9 20 -8 45 1 44 11 59 21 31 3 -7 0 -19 -6 -25 -8 -8 -8 -11
1 -11 7 0 12 5 12 11 0 5 5 7 10 4 14 -9 12 7 -5 29 -8 10 -12 23 -9 27 3 5
-2 6 -10 3 -12 -5 -16 0 -16 20 0 14 5 26 11 26 6 0 5 6 -3 13 -9 10 -12 30
-8 63 4 42 5 44 8 16 2 -24 7 -32 18 -28 10 4 14 -2 14 -22 0 -19 -3 -23 -9
-13 -6 9 -8 3 -7 -20 1 -25 7 -35 21 -38 17 -3 17 -1 6 12 -14 18 -6 41 11 31
7 -5 9 -1 5 9 -3 9 -1 18 6 20 7 2 -1 16 -20 33 -31 26 -46 53 -23 39 6 -3 10
3 10 13 0 11 -7 23 -16 26 -12 5 -15 2 -10 -9 3 -9 2 -13 -4 -10 -6 3 -10 17
-10 29 0 19 5 24 26 24 14 0 28 -7 31 -14 9 -25 23 -15 23 16 0 31 -9 37 -27
19 -8 -8 -13 -8 -17 0 -4 6 -13 11 -19 11 -8 0 -8 -3 2 -9 9 -6 -2 -11 -34
-15 -58 -9 -85 10 -85 60 0 41 36 70 75 60 24 -6 34 -20 49 -69 3 -10 11 -15
17 -11 8 5 8 9 -1 14 -9 5 -10 20 -6 44 9 48 23 46 18 -1 -3 -21 -1 -34 4 -30
4 4 8 20 9 34 0 15 5 28 12 30 12 4 11 -15 -2 -49 -4 -11 -3 -18 4 -18 8 0 11
-53 11 -171 0 -111 -3 -168 -10 -164 -5 3 -10 0 -10 -8 0 -7 7 -14 15 -14 13
0 15 31 15 219 l0 218 -387 -2 c-214 -1 -371 -3 -350 -5 39 -4 43 -9 28 -32
-7 -11 -11 -10 -21 5 -11 18 -11 18 -6 1 3 -10 6 -23 6 -28 0 -6 5 -7 11 -3 7
4 10 1 7 -6 -2 -8 -13 -18 -24 -24 -10 -6 -22 -15 -25 -20 -4 -5 -11 -6 -17
-2 -6 4 -8 -3 -5 -16 4 -19 3 -20 -6 -8 -8 11 -11 12 -11 2 0 -7 -4 -11 -9 -7
-11 6 -6 45 7 54 4 3 9 17 9 30 1 13 -1 21 -4 18 -3 -4 -12 1 -20 9 -9 8 -18
12 -22 9 -3 -4 2 -12 11 -19 18 -13 18 -53 -1 -48 -6 1 -11 -4 -11 -12 0 -22
-22 -31 -34 -15 -13 18 -53 22 -62 7 -5 -7 -2 -9 8 -5 11 4 18 -1 21 -14 3
-10 1 -19 -4 -19 -5 0 -9 5 -9 10 0 6 -7 10 -15 10 -8 0 -15 9 -15 20 0 11 -4
20 -10 20 -5 0 -10 -4 -10 -10 0 -5 -4 -10 -10 -10 -5 0 -10 7 -10 15 0 8 -6
15 -14 15 -8 0 -17 7 -20 16 -3 8 -11 12 -17 9 -8 -5 -8 -10 0 -18 15 -15 14
-30 -1 -21 -7 5 -8 3 -3 -6 9 -15 -12 -30 -31 -23 -11 4 -11 9 0 25 15 21 11
52 -5 42 -5 -3 -6 2 -3 10 3 9 1 16 -5 16 -7 0 -14 -7 -17 -15 -4 -8 -10 -13
-15 -10 -4 3 -6 12 -2 20 4 11 1 13 -11 9 -11 -4 -16 -1 -16 10 0 13 -13 16
-81 16 -51 0 -78 -4 -74 -10 3 -5 -1 -10 -10 -10 -9 0 -13 5 -10 10 4 6 -27
10 -87 10 l-93 0 -1 -35z m146 15 c-19 -13 -30 -13 -30 0 0 6 10 10 23 10 18
0 19 -2 7 -10z m114 4 c-7 -3 -10 -14 -7 -24 3 -11 9 -17 14 -14 5 3 9 0 9 -5
0 -17 -18 -13 -39 8 -21 21 -11 42 19 40 8 0 10 -3 4 -5z m86 -8 c0 -9 -7 -12
-20 -9 -11 3 -20 9 -20 14 0 5 9 9 20 9 11 0 20 -6 20 -14z m600 4 c0 -5 -2
-10 -4 -10 -3 0 -8 5 -11 10 -3 6 -1 10 4 10 6 0 11 -4 11 -10z m480 0 c0 -5
-4 -10 -9 -10 -6 0 -13 5 -16 10 -3 6 1 10 9 10 9 0 16 -4 16 -10z m-1124 -21
c19 -22 19 -22 -3 -10 -13 6 -23 16 -23 21 0 15 5 12 26 -11z m684 11 c0 -5
-4 -10 -10 -10 -5 0 -10 5 -10 10 0 6 5 10 10 10 6 0 10 -4 10 -10z m-90 -37
c-8 -3 -18 -11 -22 -17 -5 -7 -8 -4 -8 7 0 11 7 17 23 16 15 0 17 -2 7 -6z
m-534 -24 c3 -6 2 -15 -4 -21 -6 -6 -11 -2 -15 11 -5 22 7 29 19 10z m34 2 c0
-6 -4 -13 -10 -16 -5 -3 -10 1 -10 9 0 9 5 16 10 16 6 0 10 -4 10 -9z m101
-28 c-12 -20 -14 -14 -5 12 4 9 9 14 11 11 3 -2 0 -13 -6 -23z m-211 5 c0 -4
-7 -8 -15 -8 -8 0 -15 4 -15 8 0 5 7 9 15 9 8 0 15 -4 15 -9z m-6 -91 c3 3 6
1 6 -5 0 -14 -46 -16 -54 -3 -9 14 6 21 24 11 10 -5 20 -6 24 -3z m455 -8 c16
-12 50 -25 76 -30 26 -5 54 -14 62 -20 17 -15 86 -22 78 -9 -4 6 -19 10 -35
10 -30 0 -47 14 -30 25 5 3 15 3 22 -1 7 -4 25 -8 40 -8 16 -1 28 -5 29 -11 0
-5 6 -16 12 -24 10 -12 9 -13 -7 -8 -16 6 -17 5 -6 -8 11 -13 9 -13 -24 0 -24
10 -42 12 -53 6 -10 -5 -29 -5 -47 0 -43 13 -50 11 -36 -6 16 -19 3 -19 -30 0
-14 8 -36 15 -50 16 -20 1 -18 3 10 9 l35 7 -33 2 c-19 0 -35 7 -38 16 -4 8
-18 15 -33 16 l-26 1 25 7 c24 7 24 7 5 19 -19 11 -19 11 3 12 13 0 36 -9 51
-21z m166 11 c3 -5 -1 -10 -10 -10 -9 0 -13 5 -10 10 3 6 8 10 10 10 2 0 7 -4
10 -10z m75 0 c0 -5 -2 -10 -4 -10 -3 0 -8 5 -11 10 -3 6 -1 10 4 10 6 0 11
-4 11 -10z m280 -6 c0 -11 -5 -14 -16 -10 -9 3 -21 6 -27 6 -16 0 14 20 31 20
6 0 12 -7 12 -16z m30 12 c0 -3 -4 -8 -10 -11 -5 -3 -10 -1 -10 4 0 6 5 11 10
11 6 0 10 -2 10 -4z m-943 -12 c-3 -3 -12 -4 -19 -1 -8 3 -5 6 6 6 11 1 17 -2
13 -5z m511 -6 c6 -1 12 -4 12 -8 0 -15 -14 -19 -34 -8 -11 6 -34 15 -51 19
-23 6 -20 7 15 4 25 -3 51 -6 58 -7z m467 2 c-3 -5 -11 -10 -16 -10 -6 0 -7 5
-4 10 3 6 11 10 16 10 6 0 7 -4 4 -10z m-920 -10 c-3 -5 -2 -10 4 -10 5 0 11
3 14 8 2 4 2 2 1 -5 -2 -6 2 -14 9 -17 8 -3 6 -5 -3 -5 -23 -1 -43 15 -36 28
4 6 9 11 12 11 3 0 2 -4 -1 -10z m858 -42 c-4 -21 -8 -24 -18 -15 -11 10 -10
15 4 28 20 20 20 20 14 -13z m-133 -18 c0 -11 -4 -20 -9 -20 -5 0 -7 9 -4 20
3 11 7 20 9 20 2 0 4 -9 4 -20z m-305 -60 c-3 -5 -12 -10 -18 -10 -7 0 -6 4 3
10 19 12 23 12 15 0z m470 0 c-3 -5 -12 -10 -18 -10 -7 0 -6 4 3 10 19 12 23
12 15 0z m-811 -15 c-10 -8 -14 -15 -9 -15 6 0 3 -5 -5 -10 -8 -5 -10 -10 -4
-10 6 0 17 7 24 15 7 8 21 15 30 15 10 0 21 6 24 13 3 6 3 1 -1 -13 -6 -26
-33 -51 -45 -44 -4 3 -5 -1 -2 -9 3 -8 0 -18 -7 -23 -8 -4 -10 -3 -5 4 4 7 3
12 -3 12 -5 0 -13 -5 -16 -10 -9 -14 -41 29 -42 56 -1 17 3 20 22 17 12 -3 26
0 29 6 4 6 12 11 19 11 6 0 2 -7 -9 -15z m446 1 c0 -3 -4 -8 -10 -11 -5 -3
-10 -1 -10 4 0 6 5 11 10 11 6 0 10 -2 10 -4z m-370 -56 c0 -4 -10 -6 -22 -3
-19 5 -21 3 -10 -8 16 -18 15 -29 -3 -29 -21 0 -19 37 2 49 18 10 33 6 33 -9z
m355 0 c8 -13 -5 -13 -25 0 -13 8 -13 10 2 10 9 0 20 -4 23 -10z m-350 -70
c-3 -5 -14 -6 -25 -3 -11 3 -18 9 -15 13 3 5 14 6 25 3 11 -3 18 -9 15 -13z
m75 16 c0 -2 -7 -7 -16 -10 -8 -3 -12 -2 -9 4 6 10 25 14 25 6z m720 -46 c0
-5 -2 -10 -4 -10 -3 0 -8 5 -11 10 -3 6 -1 10 4 10 6 0 11 -4 11 -10z m79 -68
c6 -11 5 -25 -3 -41 -11 -20 -14 -21 -19 -6 -10 23 -8 33 2 17 7 -11 9 -11 14
2 3 8 -1 22 -9 31 -9 8 -11 15 -5 15 6 0 15 -8 20 -18z m41 -33 c0 -11 -4 -17
-10 -14 -5 3 -10 15 -10 26 0 11 5 17 10 14 6 -3 10 -15 10 -26z m-200 -929
c0 -5 -7 -10 -16 -10 -8 0 -12 5 -9 10 3 6 10 10 16 10 5 0 9 -4 9 -10z"/>
<path d="M1474 2833 c11 -11 46 -14 46 -3 0 6 -12 10 -27 10 -14 0 -23 -3 -19
-7z"/>
<path d="M1110 2696 c0 -2 7 -9 15 -16 13 -11 14 -10 9 4 -5 14 -24 23 -24 12z"/>
<path d="M1103 3083 c9 -2 23 -2 30 0 6 3 -1 5 -18 5 -16 0 -22 -2 -12 -5z"/>
<path d="M1193 3083 c15 -2 25 -9 22 -14 -4 -5 -1 -9 4 -9 6 0 11 7 11 15 0
11 -10 15 -32 14 -31 -2 -31 -2 -5 -6z"/>
<path d="M1248 3083 c6 -2 18 -2 25 0 6 3 1 5 -13 5 -14 0 -19 -2 -12 -5z"/>
<path d="M1295 3080 c3 -5 13 -10 21 -10 8 0 14 5 14 10 0 6 -9 10 -21 10 -11
0 -17 -4 -14 -10z"/>
<path d="M1348 3083 c7 -3 16 -2 19 1 4 3 -2 6 -13 5 -11 0 -14 -3 -6 -6z"/>
<path d="M1380 3086 c0 -2 7 -7 16 -10 8 -3 12 -2 9 4 -6 10 -25 14 -25 6z"/>
<path d="M466 3054 c-11 -28 -7 -54 7 -48 8 3 14 -2 15 -11 1 -8 3 -21 4 -29
1 -8 8 -12 16 -9 10 4 11 8 1 13 -6 5 -9 15 -6 24 4 9 2 16 -4 16 -6 0 -7 5
-3 12 4 7 3 8 -4 4 -7 -4 -12 -2 -12 3 0 18 5 26 13 23 5 -1 6 2 2 8 -9 15
-22 12 -29 -6z"/>
<path d="M604 3062 c4 -7 2 -12 -3 -12 -6 0 -10 -18 -9 -42 1 -41 1 -41 5 -8
3 19 9 40 14 47 7 7 6 14 -2 19 -8 4 -9 3 -5 -4z"/>
<path d="M310 3008 c-3 -31 -1 -53 3 -49 5 5 7 30 5 57 l-3 49 -5 -57z"/>
<path d="M1420 3056 c0 -2 8 -10 18 -17 15 -13 16 -12 3 4 -13 16 -21 21 -21
13z"/>
<path d="M220 3010 c0 -22 2 -40 4 -40 2 0 6 18 8 40 2 22 0 40 -4 40 -5 0 -8
-18 -8 -40z"/>
<path d="M267 3030 c-3 -11 -1 -23 4 -26 13 -8 11 -21 -7 -38 -8 -9 -11 -16
-6 -16 18 0 34 29 27 47 -5 10 -7 26 -6 36 3 23 -5 22 -12 -3z"/>
<path d="M776 3041 c-4 -7 -5 -15 -2 -18 9 -9 19 4 14 18 -4 11 -6 11 -12 0z"/>
<path d="M1207 3030 c3 -11 9 -17 15 -14 5 3 4 12 -3 20 -16 19 -18 18 -12 -6z"/>
<path d="M2026 3035 c-9 -24 -7 -63 3 -69 4 -3 8 11 7 31 -1 20 4 38 11 40 18
6 28 -44 13 -62 -8 -10 -9 -15 -1 -15 15 0 26 50 14 69 -14 22 -39 25 -47 6z"/>
<path d="M434 3015 c-1 -14 2 -25 7 -25 5 0 9 11 9 25 0 33 -15 33 -16 0z"/>
<path d="M1410 3022 c0 -6 9 -12 20 -15 11 -3 20 -3 20 -1 0 2 -9 8 -20 14
-11 6 -20 7 -20 2z"/>
<path d="M371 2993 c-2 -32 26 -56 49 -43 10 5 25 7 33 4 19 -7 28 8 16 26 -7
12 -9 11 -10 -5 0 -11 -3 -14 -6 -8 -3 10 -10 9 -27 -2 -26 -17 -39 -8 -49 30
-4 19 -5 18 -6 -2z"/>
<path d="M400 2996 c0 -8 4 -17 8 -20 4 -2 8 4 8 15 0 10 -4 19 -8 19 -4 0 -8
-6 -8 -14z"/>
<path d="M661 2994 c0 -11 3 -14 6 -6 3 7 2 16 -1 19 -3 4 -6 -2 -5 -13z"/>
<path d="M170 2976 c7 -7 13 -7 20 0 6 6 3 10 -10 10 -13 0 -16 -4 -10 -10z"/>
<path d="M343 2965 c0 -8 4 -12 9 -9 5 3 6 10 3 15 -9 13 -12 11 -12 -6z"/>
<path d="M1773 2876 c0 -8 6 -12 14 -9 7 3 10 9 7 14 -8 14 -21 11 -21 -5z"/>
<path d="M145 2830 c-3 -5 1 -10 10 -10 9 0 13 5 10 10 -3 6 -8 10 -10 10 -2
0 -7 -4 -10 -10z"/>
<path d="M846 2818 c3 -4 9 -8 15 -8 5 0 9 4 9 8 0 5 -7 9 -15 9 -8 0 -12 -4
-9 -9z"/>
<path d="M890 2821 c0 -5 7 -11 15 -15 8 -3 15 -1 15 3 0 5 -7 11 -15 15 -8 3
-15 1 -15 -3z"/>
<path d="M830 2796 c0 -9 5 -16 10 -16 6 0 10 4 10 9 0 6 -4 13 -10 16 -5 3
-10 -1 -10 -9z"/>
<path d="M1710 2799 c0 -5 5 -7 10 -4 6 3 10 8 10 11 0 2 -4 4 -10 4 -5 0 -10
-5 -10 -11z"/>
<path d="M894 2766 c-5 -14 23 -56 38 -56 5 0 8 7 8 16 0 8 -4 13 -9 10 -5 -3
-15 1 -22 10 -10 13 -10 17 2 25 10 6 11 9 1 9 -7 0 -15 -6 -18 -14z"/>
<path d="M660 2740 c0 -5 5 -10 10 -10 6 0 10 5 10 10 0 6 -4 10 -10 10 -5 0
-10 -4 -10 -10z"/>
<path d="M1795 2740 c-5 -9 -4 -15 3 -18 7 -2 10 -7 8 -11 -2 -3 12 -17 32
-30 23 -15 32 -18 23 -8 -12 15 -11 17 7 17 16 0 20 4 15 17 -4 11 -8 12 -11
5 -6 -20 -22 -13 -22 9 0 16 -5 20 -20 16 -10 -3 -21 0 -23 6 -2 7 -6 6 -12
-3z m42 -32 c-3 -8 -6 -5 -6 6 -1 11 2 17 5 13 3 -3 4 -12 1 -19z"/>
<path d="M870 2715 c0 -16 16 -20 24 -6 3 5 -1 11 -9 15 -9 3 -15 0 -15 -9z"/>
<path d="M950 2721 c0 -6 4 -13 10 -16 6 -3 7 1 4 9 -7 18 -14 21 -14 7z"/>
<path d="M870 2680 c0 -5 5 -10 11 -10 5 0 7 5 4 10 -3 6 -8 10 -11 10 -2 0
-4 -4 -4 -10z"/>
<path d="M1931 2669 c-12 -13 -26 -19 -35 -16 -9 4 -16 2 -16 -3 0 -6 11 -10
25 -10 14 0 25 5 25 10 0 6 8 10 19 10 10 0 24 7 31 15 21 25 -26 19 -49 -6z"/>
<path d="M900 2671 c0 -11 59 -26 67 -17 4 3 1 6 -5 6 -20 0 -26 2 -44 11 -11
6 -18 6 -18 0z"/>
<path d="M880 2636 c0 -2 7 -9 15 -16 13 -11 14 -10 9 4 -5 14 -24 23 -24 12z"/>
<path d="M2182 2615 c0 -16 2 -22 5 -12 2 9 2 23 0 30 -3 6 -5 -1 -5 -18z"/>
<path d="M1730 2621 c0 -5 9 -7 20 -4 11 3 20 7 20 9 0 2 -9 4 -20 4 -11 0
-20 -4 -20 -9z"/>
<path d="M1790 2619 c0 -5 5 -7 10 -4 6 3 10 8 10 11 0 2 -4 4 -10 4 -5 0 -10
-5 -10 -11z"/>
<path d="M1820 2621 c0 -4 11 -6 25 -3 14 2 25 6 25 8 0 2 -11 4 -25 4 -14 0
-25 -4 -25 -9z"/>
<path d="M1916 2615 c-19 -15 -19 -16 6 -19 7 0 14 -9 16 -20 4 -19 -13 -36
-37 -36 -12 0 -12 3 -3 12 33 33 2 25 -72 -19 -4 -3 -2 -10 5 -15 11 -8 10 -9
-3 -5 -9 3 -22 -1 -29 -9 -6 -8 -14 -13 -16 -10 -4 4 27 44 70 88 9 10 12 18
7 18 -6 0 -26 -18 -46 -40 -20 -22 -41 -40 -46 -40 -5 0 -7 3 -5 8 3 4 -10 8
-29 9 -19 2 -34 -2 -34 -7 0 -6 11 -10 24 -10 14 0 28 -5 32 -12 5 -8 2 -9 -9
-5 -9 3 -19 2 -22 -3 -4 -6 1 -10 9 -10 9 0 16 -7 16 -16 0 -10 -6 -14 -15
-10 -8 3 -15 0 -15 -6 0 -7 -5 -6 -15 2 -13 11 -13 15 -3 21 11 7 11 9 0 9 -7
0 -10 4 -7 10 3 5 1 18 -4 27 -6 10 -11 14 -11 9 0 -5 -9 -1 -20 9 -11 10 -20
13 -20 7 0 -7 -8 -12 -17 -12 -15 0 -16 -2 -3 -9 8 -6 17 -8 21 -5 4 2 11 -1
15 -7 5 -9 -7 -11 -46 -6 -30 4 -56 11 -60 17 -8 13 -60 24 -60 12 0 -4 21
-14 48 -21 26 -8 52 -17 57 -20 10 -5 13 -6 44 -9 11 -2 10 -7 -3 -27 -19 -29
-20 -39 -3 -29 7 4 9 3 4 -2 -5 -5 -13 -9 -18 -9 -5 0 -10 -4 -11 -10 -2 -5
-16 -17 -33 -25 -16 -9 -29 -21 -28 -27 1 -6 -3 -13 -10 -16 -10 -4 -13 14
-12 69 0 69 1 73 20 68 16 -4 17 -3 5 5 -8 6 -22 11 -30 11 -8 1 -28 19 -43
41 -16 23 -31 38 -34 35 -9 -9 -10 -55 -1 -50 20 13 5 -15 -23 -42 -24 -23
-29 -25 -24 -9 6 18 5 18 -5 2 -6 -9 -9 -21 -6 -25 3 -5 1 -22 -4 -38 -7 -24
-8 -25 -9 -6 -1 12 -5 22 -11 22 -5 0 -10 9 -10 20 0 11 -7 20 -15 20 -9 0
-15 -9 -15 -22 0 -21 0 -21 -15 -2 -12 14 -14 15 -9 2 9 -27 -32 -10 -63 26
l-26 31 6 -33 c4 -21 3 -31 -3 -27 -6 3 -10 16 -11 28 -1 20 -2 20 -8 -3 -5
-14 -3 -31 3 -39 7 -10 6 -16 -7 -25 -13 -10 -14 -15 -4 -26 7 -8 1 -6 -13 3
-14 10 -36 23 -50 29 -41 19 -80 60 -80 84 0 13 -5 26 -12 30 -8 5 -9 -2 -5
-24 4 -18 10 -45 13 -62 4 -20 3 -30 -5 -30 -7 0 -9 4 -6 10 3 6 -1 7 -9 4 -9
-3 -16 -10 -16 -16 0 -5 3 -7 8 -5 14 9 52 -12 52 -29 0 -9 9 -29 21 -46 30
-41 20 -44 -11 -2 -14 18 -28 34 -32 34 -9 0 21 -109 42 -150 10 -20 25 -42
34 -49 8 -7 12 -20 9 -28 -4 -11 -2 -14 5 -9 7 4 24 -1 40 -12 15 -11 37 -22
48 -26 12 -4 33 -17 46 -29 13 -13 38 -33 54 -45 l29 -23 -40 19 c-22 11 -48
29 -59 41 -18 20 -80 53 -123 66 -13 3 -22 12 -20 18 1 7 -10 12 -30 11 -18 0
-30 3 -27 8 3 4 -2 9 -10 9 -9 1 -20 3 -26 4 -5 1 -15 3 -21 4 -5 0 -8 5 -5 9
2 4 -4 8 -15 8 -17 0 -18 -2 -6 -11 7 -5 12 -15 10 -21 -2 -6 18 -30 44 -53
62 -54 60 -53 116 -80 26 -13 46 -26 43 -29 -4 -3 -41 12 -83 34 -62 31 -84
49 -120 97 -23 33 -43 67 -44 76 0 9 -3 11 -5 4 -5 -12 35 -95 58 -123 7 -8
30 -30 51 -47 21 -18 33 -33 27 -33 -6 0 -8 -5 -5 -10 4 -6 10 -8 15 -5 13 8
60 -6 60 -18 0 -6 -3 -7 -7 -4 -3 4 -13 -2 -21 -14 -22 -32 -105 -80 -114 -66
-5 8 -8 6 -8 -5 0 -11 7 -17 18 -16 36 3 62 -2 62 -13 0 -5 -4 -8 -10 -4 -17
11 -48 -17 -43 -39 4 -18 1 -18 -21 7 -20 21 -30 26 -43 19 -14 -8 -13 -12 10
-26 14 -10 36 -18 49 -19 12 0 26 -6 30 -11 5 -7 12 -6 20 3 7 8 8 11 2 8 -17
-10 -35 16 -24 33 8 13 10 12 10 -2 0 -10 5 -18 10 -18 6 0 10 7 10 15 0 18
16 20 24 3 3 -7 3 -2 0 12 l-7 25 23 -20 c21 -18 23 -18 17 -2 -6 15 -4 16 13
7 11 -6 20 -9 20 -6 0 2 16 0 36 -4 34 -8 115 0 167 16 17 5 19 4 10 -6 -13
-14 -1 -49 27 -82 16 -19 40 -24 40 -8 0 5 7 7 15 4 8 -4 13 -10 10 -14 -3 -4
32 -7 78 -6 52 1 95 -3 117 -12 39 -16 70 -19 87 -9 6 4 14 3 18 -3 3 -5 0
-10 -7 -11 -7 0 -2 -5 11 -10 19 -7 28 -6 40 6 15 15 15 17 0 28 -9 7 -14 18
-11 26 3 8 0 11 -7 7 -15 -9 -14 7 1 22 9 9 8 12 -6 12 -9 0 -14 -4 -11 -10 3
-6 -4 -10 -17 -11 -21 0 -21 -1 -4 -8 18 -7 18 -8 2 -14 -10 -4 -22 -5 -27 -1
-5 3 -9 0 -9 -5 0 -6 -9 -11 -19 -11 -12 0 -26 15 -40 45 -12 25 -21 49 -21
54 0 5 -14 21 -31 35 l-31 26 31 -2 c17 -1 31 -7 31 -13 0 -6 3 -6 8 1 4 7 18
11 32 10 14 -1 30 1 35 4 29 18 97 31 110 20 10 -8 15 -8 21 1 4 8 3 9 -4 5
-17 -11 -15 9 3 24 12 10 18 10 32 -1 14 -12 16 -12 9 0 -6 9 -5 12 5 9 8 -3
13 -11 11 -18 -1 -7 0 -21 4 -33 6 -20 7 -20 20 -2 18 24 18 13 0 -30 -14 -32
-12 -45 5 -45 4 0 5 10 2 23 -3 12 -2 19 2 15 14 -13 37 13 25 27 -8 9 -6 14
5 18 8 4 12 13 9 21 -3 8 2 16 13 19 14 4 14 5 -4 6 -18 1 -22 6 -19 24 3 12
5 24 5 26 1 3 6 0 13 -7 16 -16 33 -15 19 1 -8 10 -7 17 1 25 9 9 8 12 -5 12
-9 0 -17 -5 -17 -12 0 -6 -3 -8 -7 -4 -5 4 -1 13 8 19 22 16 7 62 -17 53 -15
-6 -15 -4 -3 11 12 15 12 16 -1 8 -8 -4 -26 -17 -39 -29 -13 -12 -21 -15 -16
-7 5 9 4 12 -3 7 -15 -9 -4 -34 16 -39 10 -2 -9 -4 -40 -4 -32 0 -58 4 -58 7
0 4 -12 5 -27 3 -23 -4 -19 1 22 26 52 32 71 38 60 21 -10 -15 37 -7 55 10 26
24 60 50 64 50 2 0 2 -11 1 -24 -2 -17 1 -23 10 -19 10 3 11 11 4 30 -7 20 -6
24 4 20 7 -3 13 3 13 14 0 19 -4 17 -49 -20 -11 -9 -32 -16 -48 -17 -24 -1
-27 1 -18 12 6 8 15 11 20 8 5 -3 24 6 42 20 19 15 40 26 47 26 7 0 10 3 7 6
-9 10 -66 -16 -78 -35 -9 -13 -9 -13 -4 4 4 11 8 28 11 39 2 10 10 29 19 42 8
13 11 24 5 24 -5 0 -10 5 -10 11 0 5 6 7 13 4 6 -4 3 1 -7 9 -15 12 -23 13
-33 4 -11 -9 -15 -7 -20 10 -3 12 -10 19 -15 16 -5 -3 -2 -14 7 -24 9 -10 14
-25 10 -32 -4 -7 2 -2 13 11 19 23 19 23 24 3 4 -14 -3 -29 -21 -46 -35 -34
-59 -33 -72 2 -9 23 -12 25 -22 12 -7 -8 -22 -14 -34 -12 -17 3 -21 -1 -17
-12 3 -8 1 -23 -6 -33 -9 -16 -10 -15 -4 6 4 17 3 21 -6 16 -9 -6 -9 -3 -1 13
6 11 11 29 11 39 0 47 21 93 46 99 19 5 23 11 18 26 -4 14 -2 18 5 14 16 -10
13 7 -5 30 -15 18 -15 18 -9 -4 6 -20 4 -21 -20 -12 -43 16 -77 58 -37 46 39
-12 83 -16 78 -7 -3 5 1 11 9 14 9 4 12 1 8 -9 -3 -7 -1 -14 5 -14 5 0 12 7
16 15 3 8 11 15 19 15 17 0 57 37 57 52 0 7 -13 -1 -30 -17 -16 -16 -33 -26
-36 -22 -4 3 -22 0 -40 -8 -19 -8 -34 -10 -34 -6 0 5 11 12 25 15 14 4 24 10
21 14 -2 4 9 8 26 8 35 1 50 19 45 52 -3 12 0 25 4 28 13 8 11 24 -3 24 -7 0
-22 -7 -32 -15z m-156 -190 c0 -25 -22 -50 -145 -166 -33 -30 -69 -67 -80 -80
-35 -44 -49 -44 -25 -1 13 23 51 63 84 88 88 68 158 144 153 166 -3 10 -1 18
4 18 5 0 9 -11 9 -25z m-42 -16 c-3 -8 -7 -3 -11 10 -4 17 -3 21 5 13 5 -5 8
-16 6 -23z m-444 -61 c16 -27 25 -48 22 -48 -6 0 -76 117 -76 128 0 8 20 -21
54 -80z m550 63 c3 -5 -1 -11 -9 -15 -15 -6 -29 7 -18 18 9 9 21 8 27 -3z
m-374 -31 c0 -5 -4 -10 -9 -10 -6 0 -13 5 -16 10 -3 6 1 10 9 10 9 0 16 -4 16
-10z m-206 -46 c3 -8 2 -12 -4 -9 -6 3 -10 10 -10 16 0 14 7 11 14 -7z m-57
-31 c-3 -10 -5 -4 -5 12 0 17 2 24 5 18 2 -7 2 -21 0 -30z m158 27 c3 -6 -1
-7 -9 -4 -18 7 -21 14 -7 14 6 0 13 -4 16 -10z m-206 -44 c-2 -2 -13 8 -23 22
l-19 27 24 -22 c12 -12 21 -24 18 -27z m46 -56 c3 -25 17 -67 30 -95 19 -40
20 -45 5 -25 -11 14 -28 34 -37 44 -11 11 -12 16 -4 11 11 -6 13 -4 7 10 -9
25 -20 111 -13 105 3 -3 8 -25 12 -50z m668 0 c3 -11 1 -18 -4 -14 -5 3 -9 12
-9 20 0 20 7 17 13 -6z m-33 -9 c0 -6 -4 -13 -10 -16 -5 -3 -10 1 -10 9 0 9 5
16 10 16 6 0 10 -4 10 -9z m-337 -151 c3 -11 2 -18 -3 -15 -4 3 -10 14 -13 25
-3 11 -2 18 3 15 4 -3 10 -14 13 -25z m237 -50 c-8 -5 -19 -10 -25 -10 -5 0
-3 5 5 10 8 5 20 10 25 10 6 0 3 -5 -5 -10z m-239 -37 c-12 -20 -14 -14 -5 12
4 9 9 14 11 11 3 -2 0 -13 -6 -23z m444 7 c-3 -5 -12 -10 -18 -10 -7 0 -6 4 3
10 19 12 23 12 15 0z m-10 -30 c3 -5 1 -10 -4 -10 -6 0 -11 5 -11 10 0 6 2 10
4 10 3 0 8 -4 11 -10z m-465 -39 c0 -5 -24 -19 -52 -32 -44 -19 -70 -23 -153
-23 -63 1 -111 6 -130 14 l-30 14 33 4 c18 2 53 -1 76 -6 52 -11 198 7 235 28
20 12 21 12 21 1z"/>
<path d="M2156 2621 c-4 -7 -5 -15 -2 -18 9 -9 19 4 14 18 -4 11 -6 11 -12 0z"/>
<path d="M965 2600 c3 -5 8 -10 11 -10 2 0 4 5 4 10 0 6 -5 10 -11 10 -5 0 -7
-4 -4 -10z"/>
<path d="M1510 2579 c0 -5 5 -7 10 -4 6 3 10 8 10 11 0 2 -4 4 -10 4 -5 0 -10
-5 -10 -11z"/>
<path d="M1788 2583 c7 -3 16 -2 19 1 4 3 -2 6 -13 5 -11 0 -14 -3 -6 -6z"/>
<path d="M1540 2569 c0 -5 5 -7 10 -4 6 3 10 2 10 -3 0 -5 10 -12 23 -15 21
-6 21 -6 -3 13 -28 22 -40 25 -40 9z"/>
<path d="M1666 2565 c-3 -8 -1 -15 4 -15 6 0 10 7 10 15 0 8 -2 15 -4 15 -2 0
-6 -7 -10 -15z"/>
<path d="M1606 2558 c3 -5 10 -6 15 -3 13 9 11 12 -6 12 -8 0 -12 -4 -9 -9z"/>
<path d="M1140 2556 c0 -2 7 -9 15 -16 9 -7 15 -8 15 -2 0 5 -7 12 -15 16 -8
3 -15 4 -15 2z"/>
<path d="M1373 2519 c1 -17 6 -25 13 -22 16 6 27 33 14 33 -6 0 -10 -6 -11
-12 0 -7 -4 -4 -9 7 -8 18 -9 17 -7 -6z"/>
<path d="M1055 2520 c3 -5 10 -10 16 -10 5 0 9 5 9 10 0 6 -7 10 -16 10 -8 0
-12 -4 -9 -10z"/>
<path d="M1187 2519 c7 -7 15 -10 18 -7 3 3 -2 9 -12 12 -14 6 -15 5 -6 -5z"/>
<path d="M1410 2499 c0 -5 5 -7 10 -4 6 3 10 8 10 11 0 2 -4 4 -10 4 -5 0 -10
-5 -10 -11z"/>
<path d="M1931 2481 c-21 -11 -30 -21 -22 -25 22 -14 1 -25 -27 -15 -21 8 -24
8 -15 -2 31 -32 106 -2 109 44 2 21 -2 21 -45 -2z"/>
<path d="M1600 2460 c-6 -11 -15 -19 -21 -17 -6 1 -13 -5 -14 -14 -5 -27 28
-12 47 22 9 16 13 29 8 29 -5 0 -14 -9 -20 -20z"/>
<path d="M1087 2449 c7 -7 15 -10 18 -7 3 3 -2 9 -12 12 -14 6 -15 5 -6 -5z"/>
<path d="M207 2429 c4 -15 8 -17 14 -8 8 14 3 29 -11 29 -4 0 -6 -9 -3 -21z"/>
<path d="M1985 2440 c3 -5 10 -10 16 -10 5 0 9 5 9 10 0 6 -7 10 -16 10 -8 0
-12 -4 -9 -10z"/>
<path d="M1131 2430 c-9 -5 -5 -9 10 -13 28 -7 31 -6 14 10 -6 6 -18 8 -24 3z"/>
<path d="M206 2385 c4 -8 8 -15 10 -15 2 0 4 7 4 15 0 8 -4 15 -10 15 -5 0 -7
-7 -4 -15z"/>
<path d="M2177 2393 c-2 -5 -1 -33 3 -63 l7 -55 2 63 c1 58 -2 73 -12 55z"/>
<path d="M175 2381 c-3 -5 -1 -12 5 -16 5 -3 10 1 10 9 0 18 -6 21 -15 7z"/>
<path d="M1999 2354 c-1 -5 -1 -13 0 -18 1 -5 -8 -6 -19 -3 -14 3 -20 1 -17
-6 7 -21 35 -19 42 3 4 12 4 24 1 27 -3 4 -7 2 -7 -3z"/>
<path d="M138 2333 c7 -3 16 -2 19 1 4 3 -2 6 -13 5 -11 0 -14 -3 -6 -6z"/>
<path d="M580 2323 c0 -13 5 -23 10 -23 13 0 13 11 0 30 -8 12 -10 11 -10 -7z"/>
<path d="M165 2301 c-9 -19 -11 -32 -5 -36 6 -4 8 -11 5 -16 -4 -5 -1 -9 5 -9
8 0 9 -7 5 -17 -4 -10 -9 -24 -12 -30 -3 -8 3 -13 16 -13 12 0 21 5 21 11 0 5
-4 8 -9 5 -4 -3 -6 6 -3 19 5 27 17 33 25 13 4 -10 6 -10 6 0 1 6 -9 22 -21
34 l-21 21 21 18 c18 14 19 18 6 23 -22 9 -22 9 -39 -23z"/>
<path d="M1880 2295 c0 -12 -6 -15 -22 -9 -23 7 -23 6 -4 -15 19 -21 43 -30
31 -11 -3 6 -1 10 4 10 14 0 14 27 1 35 -5 3 -10 -1 -10 -10z"/>
<path d="M1813 2285 c-17 -19 -16 -25 2 -25 8 0 15 9 15 20 0 23 -1 24 -17 5z"/>
<path d="M2117 2266 c-6 -16 2 -28 14 -20 12 7 11 34 0 34 -5 0 -11 -6 -14
-14z"/>
<path d="M2180 2238 c0 -17 -3 -28 -6 -25 -11 11 -44 -40 -45 -70 0 -27 -1
-27 -9 -5 -14 34 -17 27 -17 -35 -1 -32 2 -51 5 -43 8 21 32 44 32 30 0 -6 5
-8 10 -5 6 3 10 0 10 -7 0 -10 3 -9 10 2 6 10 10 -4 13 -45 2 -33 4 6 5 88 1
81 0 147 -3 147 -3 0 -5 -14 -5 -32z m0 -111 c0 -7 -9 -13 -21 -14 -17 -2 -18
1 -9 13 15 17 30 18 30 1z"/>
<path d="M1900 2250 c0 -5 5 -10 11 -10 5 0 7 5 4 10 -3 6 -8 10 -11 10 -2 0
-4 -4 -4 -10z"/>
<path d="M675 2230 c3 -5 8 -10 11 -10 2 0 4 5 4 10 0 6 -5 10 -11 10 -5 0 -7
-4 -4 -10z"/>
<path d="M2107 2203 c-4 -3 -7 -11 -7 -17 0 -6 5 -5 12 2 6 6 9 14 7 17 -3 3
-9 2 -12 -2z"/>
<path d="M760 2160 c0 -5 5 -10 10 -10 6 0 10 5 10 10 0 6 -4 10 -10 10 -5 0
-10 -4 -10 -10z"/>
<path d="M695 2140 c3 -5 8 -10 11 -10 2 0 4 5 4 10 0 6 -5 10 -11 10 -5 0 -7
-4 -4 -10z"/>
<path d="M905 2137 c-4 -10 -3 -23 3 -29 14 -14 21 3 12 27 -7 19 -8 19 -15 2z"/>
<path d="M1995 2079 c-4 -6 -5 -12 -2 -15 2 -3 7 2 10 11 7 17 1 20 -8 4z"/>
<path d="M887 2059 c4 -13 8 -18 11 -10 2 7 -1 18 -6 23 -8 8 -9 4 -5 -13z"/>
<path d="M207 2052 c-5 -7 -13 -10 -18 -7 -5 4 -9 0 -9 -8 0 -14 28 -32 37
-23 3 2 3 15 1 28 -2 16 -5 19 -11 10z"/>
<path d="M840 2044 c0 -8 5 -12 10 -9 6 3 10 10 10 16 0 5 -4 9 -10 9 -5 0
-10 -7 -10 -16z"/>
<path d="M143 2030 c-2 -19 8 -26 20 -14 7 7 -2 34 -12 34 -4 0 -7 -9 -8 -20z"/>
<path d="M990 2031 c0 -6 4 -13 10 -16 6 -3 7 1 4 9 -7 18 -14 21 -14 7z"/>
<path d="M260 2000 c0 -11 2 -20 4 -20 2 0 6 9 9 20 3 11 1 20 -4 20 -5 0 -9
-9 -9 -20z"/>
<path d="M130 1988 c0 -4 5 -8 10 -8 6 0 10 -7 10 -15 0 -8 5 -15 10 -15 6 0
10 10 10 23 0 16 -6 23 -20 23 -11 0 -20 -4 -20 -8z"/>
<path d="M2140 1993 c5 -2 10 -11 10 -19 0 -9 -5 -12 -11 -8 -7 4 -10 2 -8 -5
3 -7 9 -12 14 -12 15 1 12 44 -3 47 -7 1 -8 0 -2 -3z"/>
<path d="M185 1980 c-3 -5 -1 -10 4 -10 6 0 11 5 11 10 0 6 -2 10 -4 10 -3 0
-8 -4 -11 -10z"/>
<path d="M290 1982 c0 -11 46 -32 54 -25 3 3 -6 12 -20 20 -31 15 -34 16 -34
5z"/>
<path d="M1970 1966 c0 -2 11 -6 25 -8 13 -3 22 -1 19 3 -5 9 -44 13 -44 5z"/>
<path d="M2168 1945 c-6 -14 -17 -24 -24 -21 -8 3 -16 1 -19 -5 -4 -5 -11 -7
-16 -4 -5 4 -9 1 -9 -4 0 -6 7 -11 16 -11 12 0 15 -7 11 -26 l-4 -25 23 22
c13 12 21 26 18 30 -3 5 0 17 5 26 8 15 10 11 11 -19 0 -20 -5 -38 -12 -40 -7
-3 -6 -7 5 -11 15 -6 17 1 17 53 0 33 -2 60 -5 60 -3 0 -11 -11 -17 -25z"/>
<path d="M133 1838 c0 -56 2 -91 4 -75 2 15 9 27 14 27 5 0 9 7 9 15 0 9 6 12
15 9 20 -8 19 -30 -1 -38 -9 -3 -14 -12 -11 -19 3 -7 -1 -21 -9 -32 -20 -27
-17 -36 10 -29 13 3 27 1 30 -5 4 -7 1 -8 -8 -5 -9 3 -16 1 -16 -5 0 -6 3 -10
8 -10 24 4 33 -3 30 -23 -2 -13 -9 -22 -16 -20 -6 1 -12 -3 -12 -8 0 -5 4 -10
9 -10 5 0 16 -2 24 -5 14 -6 15 19 3 78 -4 15 -2 27 2 27 5 0 7 12 5 28 -2 15
-4 64 -4 110 -1 45 -3 82 -6 82 -8 0 -35 -30 -26 -30 4 0 1 -5 -7 -10 -12 -8
-13 -11 -1 -19 7 -5 9 -11 5 -13 -5 -3 -17 3 -26 14 -16 16 -15 22 3 20 4 -1
9 8 12 19 4 16 2 19 -10 14 -9 -3 -20 -1 -23 6 -4 6 -7 -36 -7 -93z m66 -82
c16 -19 4 -45 -20 -43 -22 2 -26 17 -4 17 8 0 15 5 15 10 0 6 -4 10 -10 10 -5
0 -10 5 -10 10 0 14 16 12 29 -4z"/>
<path d="M280 1920 c0 -5 5 -10 10 -10 6 0 10 5 10 10 0 6 -4 10 -10 10 -5 0
-10 -4 -10 -10z"/>
<path d="M562 1900 c-18 -17 -29 -30 -24 -30 5 0 21 14 37 30 37 38 30 38 -13
0z"/>
<path d="M947 1890 c5 -17 1 -19 -26 -16 -17 2 -31 0 -31 -4 0 -11 39 -20 56
-13 15 6 20 53 5 53 -5 0 -7 -9 -4 -20z"/>
<path d="M1776 1883 c-6 -14 -5 -15 5 -6 7 7 10 15 7 18 -3 3 -9 -2 -12 -12z"/>
<path d="M1842 1880 c0 -14 2 -19 5 -12 2 6 2 18 0 25 -3 6 -5 1 -5 -13z"/>
<path d="M1810 1871 c0 -25 6 -27 13 -6 4 8 2 17 -3 20 -6 4 -10 -3 -10 -14z"/>
<path d="M261 1854 c0 -11 3 -14 6 -6 3 7 2 16 -1 19 -3 4 -6 -2 -5 -13z"/>
<path d="M1718 1863 c6 -2 18 -2 25 0 6 3 1 5 -13 5 -14 0 -19 -2 -12 -5z"/>
<path d="M747 1843 c-13 -16 -14 -19 0 -32 13 -12 14 -11 8 7 -5 17 -3 21 9
16 12 -5 15 -2 10 10 -8 20 -7 20 -27 -1z"/>
<path d="M1760 1849 c0 -6 -5 -7 -12 -3 -6 4 -8 3 -4 -4 7 -11 46 -12 46 -1 0
4 -7 9 -15 13 -8 3 -15 1 -15 -5z"/>
<path d="M1816 1835 c-11 -9 -14 -15 -7 -15 7 0 19 7 27 15 20 19 5 19 -20 0z"/>
<path d="M630 1830 c-8 -5 -12 -11 -9 -14 2 -3 11 -1 19 4 8 5 12 11 9 14 -2
3 -11 1 -19 -4z"/>
<path d="M895 1830 c3 -5 8 -10 11 -10 2 0 4 5 4 10 0 6 -5 10 -11 10 -5 0 -7
-4 -4 -10z"/>
<path d="M1851 1817 c-13 -21 -12 -21 5 -5 10 10 16 20 13 22 -3 3 -11 -5 -18
-17z"/>
<path d="M845 1820 c-19 -8 -19 -9 2 -9 12 -1 25 4 28 9 7 12 -2 12 -30 0z"/>
<path d="M2160 1813 c0 -10 4 -14 8 -8 4 6 11 13 16 18 5 4 2 7 -7 7 -10 0
-17 -8 -17 -17z"/>
<path d="M773 1807 c2 -7 14 -14 26 -15 28 -4 20 13 -9 21 -14 3 -20 1 -17 -6z"/>
<path d="M1705 1810 c-3 -6 1 -7 9 -4 18 7 21 14 7 14 -6 0 -13 -4 -16 -10z"/>
<path d="M1335 1773 c-7 -38 -35 -70 -35 -40 0 8 -4 7 -9 -3 -6 -8 -7 -18 -5
-22 3 -4 0 -8 -5 -8 -6 0 -11 -5 -11 -11 0 -6 8 -9 18 -7 11 3 19 0 19 -8 0
-19 -10 -17 -41 7 -15 12 -29 20 -31 18 -8 -9 -8 -54 0 -54 6 0 9 3 8 7 -2 4
8 2 22 -4 26 -11 35 -38 13 -38 -9 0 -9 -3 -1 -11 9 -9 8 -19 -3 -40 -13 -25
-17 -27 -34 -17 -20 13 -20 13 0 20 27 10 25 19 -8 51 -23 22 -32 25 -57 18
-17 -5 -22 -10 -12 -10 10 -1 15 -6 12 -12 -4 -6 -13 -8 -20 -5 -7 2 -16 2
-20 -2 -4 -4 -10 -7 -14 -7 -4 0 -15 -8 -25 -17 -10 -10 -13 -18 -7 -18 5 0
13 5 16 10 8 13 25 13 25 0 0 -5 -16 -12 -35 -16 -26 -5 -35 -11 -35 -26 0
-16 -3 -18 -14 -9 -23 19 -77 32 -74 18 1 -7 -4 -22 -11 -35 -18 -33 -9 -47
30 -50 24 -1 30 1 20 7 -8 5 -15 23 -15 40 -1 17 3 26 8 21 5 -5 14 -6 21 -4
14 6 49 -42 40 -55 -3 -5 26 -9 65 -10 39 0 72 4 76 10 4 8 -1 9 -16 4 -15 -5
-20 -4 -16 4 4 6 14 11 22 11 8 0 12 5 9 10 -3 6 -2 10 4 10 5 0 13 -4 16 -10
3 -5 2 -10 -4 -10 -6 0 -8 -7 -5 -15 4 -8 13 -15 21 -15 8 0 12 4 8 9 -3 5 10
40 29 78 19 37 40 88 47 113 18 66 33 75 25 15 -5 -41 -28 -96 -84 -207 -5
-10 68 -7 74 4 3 4 -3 5 -12 1 -14 -5 -16 -3 -9 13 35 80 83 240 74 250 -5 7
-18 29 -29 50 l-19 39 -6 -42z m-133 -202 c-8 -4 -14 -12 -15 -17 -1 -5 -7 -8
-13 -6 -8 1 -10 -5 -7 -18 4 -16 8 -18 19 -9 15 12 19 2 6 -18 -10 -16 -51
-13 -45 3 2 7 -6 20 -19 29 l-23 17 22 -5 c14 -3 21 0 20 7 -1 6 6 11 15 11 9
0 20 4 24 8 4 4 12 7 18 7 6 0 5 -4 -2 -9z m48 -63 c0 -15 -18 -17 -30 -3 -9
11 -8 14 9 12 12 -1 21 -5 21 -9z m-165 -8 c-3 -5 -12 -10 -18 -10 -7 0 -6 4
3 10 19 12 23 12 15 0z"/>
<path d="M1740 1799 c0 -5 5 -7 10 -4 6 3 10 8 10 11 0 2 -4 4 -10 4 -5 0 -10
-5 -10 -11z"/>
<path d="M1890 1800 c0 -5 4 -10 9 -10 6 0 13 5 16 10 3 6 -1 10 -9 10 -9 0
-16 -4 -16 -10z"/>
<path d="M1805 1789 c-4 -6 -5 -12 -2 -15 2 -3 7 2 10 11 7 17 1 20 -8 4z"/>
<path d="M1120 1780 c0 -5 7 -10 15 -10 8 0 15 -4 15 -10 0 -5 -5 -10 -11 -10
-5 0 -7 -5 -3 -11 4 -8 -1 -9 -16 -4 -17 5 -21 4 -17 -6 2 -8 -2 -21 -9 -29
-11 -13 -10 -16 6 -16 10 0 16 4 14 8 -3 4 0 8 6 8 6 0 15 -11 20 -25 9 -25
32 -31 64 -19 27 10 19 51 -14 74 -27 19 -45 50 -20 35 6 -3 10 -2 10 4 0 16
-18 22 -23 9 -4 -10 -6 -10 -6 0 -1 14 -31 17 -31 2z"/>
<path d="M2150 1787 c0 -5 5 -17 11 -28 12 -24 29 -16 29 14 0 18 -2 19 -10 7
-9 -13 -11 -13 -20 0 -5 8 -10 11 -10 7z"/>
<path d="M901 1757 c-1 -23 22 -32 46 -18 15 10 14 10 -9 5 -20 -4 -27 -1 -31
13 -4 17 -5 17 -6 0z"/>
<path d="M1236 1754 c-9 -22 -8 -26 5 -18 6 3 16 0 21 -7 8 -11 8 -10 4 4 -3
10 -6 23 -6 28 0 15 -17 10 -24 -7z"/>
<path d="M1967 1756 c-8 -20 32 -33 44 -15 13 21 11 33 -4 20 -9 -7 -17 -7
-24 0 -7 7 -12 6 -16 -5z"/>
<path d="M2108 1759 c6 -7 12 -22 12 -33 0 -17 2 -18 10 -6 14 21 13 23 -12
39 -18 10 -20 11 -10 0z"/>
<path d="M1885 1709 c-4 -6 -5 -12 -2 -15 2 -3 7 2 10 11 7 17 1 20 -8 4z"/>
<path d="M1060 1695 c-11 -13 -11 -18 0 -28 10 -9 11 -9 6 1 -4 7 -2 19 4 27
7 8 10 15 7 15 -2 0 -10 -7 -17 -15z"/>
<path d="M974 1693 c4 -7 2 -13 -3 -13 -6 0 -3 -8 7 -18 21 -23 30 -19 11 4
-8 10 -12 19 -11 21 2 3 0 8 -4 11 -4 4 -4 1 0 -5z"/>
<path d="M1460 1690 c0 -5 5 -10 10 -10 6 0 9 -5 8 -11 -2 -6 4 -14 12 -16 13
-4 13 -3 0 6 -11 8 -12 11 -2 11 10 0 10 3 -2 15 -17 17 -26 19 -26 5z"/>
<path d="M1925 1690 c3 -5 8 -10 11 -10 2 0 4 5 4 10 0 6 -5 10 -11 10 -5 0
-7 -4 -4 -10z"/>
<path d="M1510 1680 c0 -5 5 -10 10 -10 6 0 10 5 10 10 0 6 -4 10 -10 10 -5 0
-10 -4 -10 -10z"/>
<path d="M1984 1675 c11 -8 27 -15 35 -15 9 0 3 7 -13 15 -36 19 -47 19 -22 0z"/>
<path d="M137 1674 c-4 -4 -7 -17 -7 -28 1 -19 1 -20 11 -3 11 19 8 43 -4 31z"/>
<path d="M846 1671 c-4 -5 3 -7 14 -4 23 6 26 13 6 13 -8 0 -17 -4 -20 -9z"/>
<path d="M915 1660 c2 -11 -1 -22 -6 -25 -20 -13 3 -24 27 -13 20 9 27 9 33
-1 5 -7 11 -9 14 -4 8 12 -2 25 -35 46 -35 22 -38 21 -33 -3z"/>
<path d="M2140 1670 c-13 -8 -12 -10 3 -10 9 0 17 5 17 10 0 12 -1 12 -20 0z"/>
<path d="M665 1650 c-3 -6 1 -7 9 -4 18 7 21 14 7 14 -6 0 -13 -4 -16 -10z"/>
<path d="M1511 1646 c-8 -10 -6 -18 9 -31 12 -11 20 -14 20 -6 0 7 4 10 9 7 5
-3 11 0 14 8 8 20 -38 39 -52 22z m39 -10 c0 -2 -7 -6 -15 -10 -8 -3 -15 -1
-15 4 0 6 7 10 15 10 8 0 15 -2 15 -4z"/>
<path d="M1031 1638 c-1 -10 -5 -18 -11 -18 -5 0 -10 -5 -10 -12 0 -8 6 -7 16
4 9 9 14 22 11 30 -4 9 -6 7 -6 -4z"/>
<path d="M1390 1635 c0 -8 2 -15 4 -15 2 0 6 7 10 15 3 8 1 15 -4 15 -6 0 -10
-7 -10 -15z"/>
<path d="M1428 1643 c7 -3 16 -2 19 1 4 3 -2 6 -13 5 -11 0 -14 -3 -6 -6z"/>
<path d="M675 1631 c-3 -5 -1 -12 5 -16 5 -3 10 1 10 9 0 18 -6 21 -15 7z"/>
<path d="M1904 1620 c0 -13 4 -16 10 -10 7 7 7 13 0 20 -6 6 -10 3 -10 -10z"/>
<path d="M1080 1621 c0 -6 5 -13 10 -16 6 -3 10 1 10 9 0 9 -4 16 -10 16 -5 0
-10 -4 -10 -9z"/>
<path d="M1950 1626 c0 -2 7 -9 15 -16 12 -10 15 -10 15 4 0 9 -7 16 -15 16
-8 0 -15 -2 -15 -4z"/>
<path d="M2168 1609 c-9 -10 -14 -20 -11 -23 7 -7 36 22 31 32 -2 4 -10 0 -20
-9z"/>
<path d="M138 1609 c-5 -51 -3 -69 12 -70 10 0 11 -2 2 -6 -6 -2 -10 -9 -6
-14 3 -5 0 -9 -5 -9 -6 0 -11 -5 -11 -11 0 -7 14 -8 40 -4 46 8 49 -3 13 -44
-23 -26 -22 -41 2 -41 8 0 17 -5 21 -12 5 -8 1 -9 -12 -4 -15 6 -16 5 -7 -5
10 -10 16 -9 29 2 16 13 16 12 5 -9 -8 -14 -9 -28 -3 -39 8 -14 11 -13 17 7 4
13 17 32 29 42 23 19 86 24 86 7 0 -8 5 -8 15 1 10 9 15 9 15 1 0 -6 5 -11 11
-11 5 0 7 5 3 11 -5 8 -1 8 14 0 25 -13 35 -14 27 -2 -3 5 5 12 17 14 13 2
-31 5 -97 5 -66 0 -111 -3 -101 -7 15 -6 17 -9 6 -16 -8 -5 -19 0 -30 15 -13
17 -23 21 -41 15 l-24 -7 26 24 c25 22 45 88 27 88 -5 0 -6 4 -3 10 3 5 0 8
-7 5 -18 -7 -48 15 -30 22 6 2 12 9 12 14 0 6 -8 6 -19 -1 -12 -6 -22 -6 -26
-1 -3 5 2 11 11 13 16 3 16 4 1 17 -14 11 -17 11 -19 0z m61 -78 c14 -9 9 -14
-24 -24 -19 -7 -19 -6 -2 7 14 10 15 15 5 19 -7 3 -8 6 -3 6 6 0 16 -3 24 -8z"/>
<path d="M2116 1612 c-3 -5 1 -9 9 -9 8 0 12 4 9 9 -3 4 -7 8 -9 8 -2 0 -6 -4
-9 -8z"/>
<path d="M385 1600 c3 -5 8 -10 11 -10 2 0 4 5 4 10 0 6 -5 10 -11 10 -5 0 -7
-4 -4 -10z"/>
<path d="M730 1600 c0 -5 7 -7 15 -4 8 4 15 8 15 10 0 2 -7 4 -15 4 -8 0 -15
-4 -15 -10z"/>
<path d="M946 1597 c3 -10 9 -15 12 -12 3 3 0 11 -7 18 -10 9 -11 8 -5 -6z"/>
<path d="M1410 1591 c-8 -6 -17 -8 -21 -5 -4 2 -10 0 -14 -6 -9 -15 18 -12 41
5 21 16 17 20 -6 6z"/>
<path d="M1925 1590 c-3 -5 -1 -10 4 -10 6 0 11 5 11 10 0 6 -2 10 -4 10 -3 0
-8 -4 -11 -10z"/>
<path d="M207 1576 c-4 -10 -1 -13 8 -9 8 3 12 9 9 14 -7 12 -11 11 -17 -5z"/>
<path d="M352 1578 c-7 -7 -12 -16 -12 -21 0 -5 7 -1 16 8 9 9 14 18 12 20 -2
3 -10 -1 -16 -7z"/>
<path d="M430 1580 c0 -4 7 -7 15 -6 23 3 26 12 5 13 -11 1 -20 -2 -20 -7z"/>
<path d="M962 1574 c-7 -8 -8 -14 -3 -14 10 0 25 19 20 25 -2 1 -10 -3 -17
-11z"/>
<path d="M1468 1578 c5 -5 16 -8 23 -6 8 3 3 7 -10 11 -17 4 -21 3 -13 -5z"/>
<path d="M1545 1580 c3 -5 8 -10 11 -10 2 0 4 5 4 10 0 6 -5 10 -11 10 -5 0
-7 -4 -4 -10z"/>
<path d="M2115 1559 c0 -16 3 -29 8 -29 4 0 7 11 7 24 0 14 -3 27 -7 29 -5 3
-8 -8 -8 -24z"/>
<path d="M590 1569 c0 -5 -4 -7 -10 -4 -5 3 -10 1 -10 -4 0 -17 27 -13 34 4 3
8 1 15 -4 15 -6 0 -10 -5 -10 -11z"/>
<path d="M487 1548 c-5 -20 -4 -21 6 -7 7 9 19 18 27 22 10 4 9 6 -6 6 -14 1
-24 -7 -27 -21z"/>
<path d="M2091 1554 c0 -11 3 -14 6 -6 3 7 2 16 -1 19 -3 4 -6 -2 -5 -13z"/>
<path d="M357 1540 c-3 -11 -1 -20 4 -20 5 0 9 9 9 20 0 11 -2 20 -4 20 -2 0
-6 -9 -9 -20z"/>
<path d="M1527 1554 c-4 -4 -2 -13 5 -21 9 -11 7 -18 -7 -31 -10 -9 -15 -11
-11 -4 9 15 -10 16 -20 1 -4 -8 -11 -3 -20 12 -11 21 -10 25 4 31 14 6 13 7
-3 5 -15 -2 -19 -9 -17 -30 l3 -28 -40 21 c-22 11 -46 20 -53 19 -7 0 11 -11
40 -25 31 -14 52 -30 49 -37 -3 -9 15 -12 63 -12 61 0 67 2 59 17 -5 9 -7 23
-6 30 2 7 2 10 0 6 -3 -5 -11 -8 -19 -8 -9 0 -13 4 -10 9 8 12 -8 54 -17 45z
m40 -80 c-3 -3 -12 -4 -19 -1 -8 3 -5 6 6 6 11 1 17 -2 13 -5z"/>
<path d="M1616 1548 c3 -5 10 -6 15 -3 13 9 11 12 -6 12 -8 0 -12 -4 -9 -9z"/>
<path d="M1670 1528 c-12 -22 -12 -22 6 -6 10 10 15 20 12 24 -4 3 -12 -5 -18
-18z"/>
<path d="M260 1507 c0 -19 6 -40 14 -46 12 -10 13 -8 9 11 l-6 23 22 -24 c11
-13 24 -21 28 -17 4 4 2 11 -5 15 -7 4 -10 14 -7 22 7 19 -5 35 -32 43 -21 7
-23 4 -23 -27z"/>
<path d="M596 1531 c-3 -5 1 -12 10 -15 22 -8 25 -4 9 11 -8 7 -16 9 -19 4z"/>
<path d="M835 1530 c3 -5 8 -10 11 -10 2 0 4 5 4 10 0 6 -5 10 -11 10 -5 0 -7
-4 -4 -10z"/>
<path d="M445 1519 c-4 -6 -5 -12 -2 -15 2 -3 7 2 10 11 7 17 1 20 -8 4z"/>
<path d="M500 1520 c-17 -11 -9 -20 33 -38 17 -7 27 -8 27 -2 0 6 -12 15 -26
20 -14 6 -22 14 -19 20 8 12 4 12 -15 0z"/>
<path d="M930 1516 c0 -24 17 -28 23 -6 3 13 0 20 -9 20 -8 0 -14 -6 -14 -14z"/>
<path d="M395 1507 c-6 -7 -10 -18 -9 -24 1 -7 2 -17 3 -23 0 -5 13 -10 27
-10 23 0 25 2 14 15 -11 13 -15 13 -21 3 -6 -9 -9 -7 -9 8 0 11 5 25 12 32 7
7 8 12 3 12 -6 -1 -15 -6 -20 -13z"/>
<path d="M1343 1498 c-2 -16 1 -18 10 -9 7 7 8 14 1 21 -6 6 -10 2 -11 -12z"/>
<path d="M330 1502 c0 -14 28 -23 36 -11 3 6 3 13 0 16 -3 4 -6 1 -6 -7 0 -10
-3 -10 -15 0 -9 7 -15 8 -15 2z"/>
<path d="M852 1505 c4 -4 3 -14 -3 -22 -9 -10 -8 -13 0 -13 7 0 9 -4 6 -10 -4
-6 9 -10 32 -9 22 1 29 3 18 6 -26 7 -46 23 -40 33 3 5 0 12 -7 16 -7 4 -10 4
-6 -1z"/>
<path d="M160 1469 c0 -5 5 -7 10 -4 6 3 10 8 10 11 0 2 -4 4 -10 4 -5 0 -10
-5 -10 -11z"/>
<path d="M1411 1464 c0 -11 3 -14 6 -6 3 7 2 16 -1 19 -3 4 -6 -2 -5 -13z"/>
<path d="M1826 1471 c-3 -5 1 -11 9 -14 9 -4 12 -1 8 9 -6 16 -10 17 -17 5z"/>
<path d="M470 1460 c-12 -8 -9 -10 13 -10 16 0 26 4 22 10 -8 12 -16 12 -35 0z"/>
<path d="M538 1453 c6 -2 18 -2 25 0 6 3 1 5 -13 5 -14 0 -19 -2 -12 -5z"/>
<path d="M618 1453 c7 -3 16 -2 19 1 4 3 -2 6 -13 5 -11 0 -14 -3 -6 -6z"/>
<path d="M668 1453 c7 -3 16 -2 19 1 4 3 -2 6 -13 5 -11 0 -14 -3 -6 -6z"/>
<path d="M708 1453 c7 -3 16 -2 19 1 4 3 -2 6 -13 5 -11 0 -14 -3 -6 -6z"/>
<path d="M788 1453 c7 -3 16 -2 19 1 4 3 -2 6 -13 5 -11 0 -14 -3 -6 -6z"/>
<path d="M146 1407 c3 -10 9 -15 12 -12 3 3 0 11 -7 18 -10 9 -11 8 -5 -6z"/>
<path d="M515 1410 c22 -4 34 -8 26 -9 -8 0 -12 -3 -10 -6 3 -2 22 0 43 6 32
9 40 8 51 -8 7 -10 11 -21 9 -25 -3 -4 2 -5 12 -1 14 5 15 1 9 -25 -4 -21 -3
-32 4 -32 6 0 11 7 11 16 0 9 10 24 23 35 24 20 57 25 57 8 0 -6 -6 -9 -14 -6
-9 4 -13 -3 -14 -21 0 -22 4 -27 26 -28 15 -1 21 1 13 3 -11 5 -11 7 0 15 10
6 6 7 -11 3 -24 -7 -24 -6 -8 11 21 21 35 12 40 -26 2 -18 -1 -24 -12 -21 -15
3 -102 2 -123 -2 -6 -1 -13 8 -15 20 -2 14 -8 20 -18 16 -8 -3 -14 -9 -14 -15
0 -5 4 -7 9 -4 5 3 11 0 14 -7 3 -9 -7 -11 -39 -8 -24 1 -44 -1 -44 -6 0 -5
163 -10 361 -12 294 -2 363 0 370 11 7 10 9 10 9 1 0 -10 59 -13 263 -12 227
1 258 2 232 14 -16 7 -31 9 -33 4 -6 -14 -109 -11 -115 4 -4 10 -6 10 -6 0 -1
-19 -69 -16 -88 3 -13 13 -14 20 -5 35 16 24 2 24 -24 0 -26 -24 -64 -36 -64
-21 0 6 4 9 8 6 11 -7 37 11 37 26 0 7 5 13 12 13 6 0 15 4 20 9 5 5 3 6 -4 2
-7 -4 -13 -2 -13 3 0 6 -7 11 -16 11 -10 0 -14 6 -10 15 5 13 -54 15 -497 14
-276 -1 -484 -5 -462 -9z m305 -15 c0 -8 -2 -15 -4 -15 -2 0 -6 7 -10 15 -3 8
-1 15 4 15 6 0 10 -7 10 -15z m108 8 c-10 -2 -18 -9 -18 -14 0 -6 -4 -7 -10
-4 -19 12 -10 25 18 24 16 -1 20 -3 10 -6z m102 -5 c0 -9 4 -8 10 2 9 13 10
13 10 0 0 -9 -5 -21 -12 -28 -7 -7 -8 -12 -2 -12 5 0 10 -9 11 -20 2 -18 0
-18 -13 -6 -8 8 -15 25 -16 38 -2 13 -10 26 -18 30 -11 5 -9 7 8 7 12 1 22 -5
22 -11z m144 -13 c4 -15 14 -26 26 -26 11 -1 26 -2 33 -3 6 -1 11 4 10 11 -2
7 3 10 11 7 11 -4 13 0 9 15 -5 20 -2 21 73 20 44 -1 69 -4 58 -6 -27 -5 -22
-36 9 -51 18 -9 19 -11 5 -11 -10 -1 -25 10 -34 24 -9 14 -21 25 -26 25 -6 0
-6 -6 1 -14 10 -11 5 -19 -22 -40 -37 -29 -52 -32 -63 -14 -5 8 -1 9 12 4 15
-6 16 -4 7 5 -15 15 -44 4 -50 -20 -3 -11 -13 -19 -23 -18 -10 1 -17 4 -15 7
2 3 0 12 -5 20 -7 11 -11 12 -25 0 -13 -11 -13 -15 -3 -22 10 -8 10 -9 -1 -6
-8 2 -16 14 -18 26 -2 17 2 22 20 23 12 0 16 3 10 6 -7 2 -13 11 -13 19 0 8
-7 17 -15 20 -21 9 -19 24 4 24 12 0 21 -9 25 -25z m66 15 c11 -8 9 -9 -12 -8
-16 1 -28 6 -28 10 0 11 22 10 40 -2z m210 6 c0 -3 -4 -8 -10 -11 -5 -3 -10
-1 -10 4 0 6 5 11 10 11 6 0 10 -2 10 -4z m-679 -29 c-10 -9 -11 -8 -5 6 3 10
9 15 12 12 3 -3 0 -11 -7 -18z m-85 -14 c-10 -10 -19 5 -10 18 6 11 8 11 12 0
2 -7 1 -15 -2 -18z m114 12 c0 -8 -4 -15 -10 -15 -5 0 -7 7 -4 15 4 8 8 15 10
15 2 0 4 -7 4 -15z m85 5 c3 -5 1 -10 -4 -10 -6 0 -11 5 -11 10 0 6 2 10 4 10
3 0 8 -4 11 -10z m85 -6 c0 -8 -4 -12 -10 -9 -5 3 -10 10 -10 16 0 5 5 9 10 9
6 0 10 -7 10 -16z m110 -4 c0 -5 -4 -10 -10 -10 -5 0 -10 5 -10 10 0 6 5 10
10 10 6 0 10 -4 10 -10z m-242 -30 c3 -9 -1 -11 -12 -7 -9 4 -16 2 -16 -3 0
-6 6 -10 14 -10 8 0 17 -6 19 -12 3 -7 6 2 6 19 1 28 4 32 24 29 12 -1 20 -7
19 -12 -2 -5 -8 -8 -13 -6 -5 1 -9 -5 -9 -14 0 -9 5 -12 13 -8 9 5 9 4 1 -5
-6 -6 -27 -13 -47 -14 -29 -3 -37 1 -41 17 -9 36 31 61 42 26z m281 -8 c8 -14
6 -19 -5 -19 -7 0 -14 9 -14 19 0 10 2 18 5 18 2 0 9 -8 14 -18z m-39 -27 c10
-12 10 -15 -4 -15 -9 0 -16 7 -16 15 0 8 2 15 4 15 2 0 9 -7 16 -15z m440 0
c11 -13 8 -15 -21 -15 -32 1 -33 1 -15 15 24 18 21 18 36 0z"/>
<path d="M1304 1392 c-6 -4 -13 -15 -17 -24 -5 -13 -1 -18 13 -18 10 0 22 5
25 10 3 6 -2 10 -11 10 -16 0 -16 1 2 15 19 14 9 21 -12 7z"/>
<path d="M1502 1406 c7 -8 16 -10 19 -5 7 11 39 1 39 -12 0 -4 7 -6 15 -3 11
5 15 -1 15 -21 0 -15 4 -24 10 -20 13 8 13 -8 0 -21 -7 -7 -1 -9 20 -6 19 3
30 0 30 -7 0 -7 5 -9 13 -4 14 9 91 14 125 7 12 -2 22 -11 22 -19 0 -12 20
-15 110 -15 l110 0 0 -184 c0 -152 3 -185 15 -189 8 -4 17 -1 21 5 5 7 12 5
21 -8 12 -16 15 -17 23 -4 13 20 12 37 0 45 -5 3 -11 18 -11 33 -1 17 -3 21
-6 9 -2 -9 -9 -15 -14 -12 -17 11 -9 -4 12 -24 12 -11 19 -25 17 -33 -3 -9
-13 -4 -30 15 -18 19 -28 24 -31 15 -3 -8 -6 -6 -6 5 -1 21 23 49 33 39 4 -3
4 1 0 11 -9 25 4 53 18 39 17 -17 33 -15 19 1 -6 8 -8 17 -4 20 3 4 1 7 -5 7
-7 0 -12 11 -12 25 0 15 -6 25 -15 25 -9 0 -12 -6 -9 -17 5 -17 5 -17 -9 -1
-17 21 -23 148 -7 148 6 0 8 -10 4 -26 -5 -19 -4 -25 5 -20 6 4 9 12 6 17 -4
5 -2 9 4 9 10 0 9 19 -2 38 -6 8 -2 11 13 9 26 -4 41 -26 34 -48 -8 -27 19
-28 44 -3 21 23 22 24 3 24 -11 0 -21 -6 -24 -12 -2 -7 -4 -1 -4 14 0 22 3 26
26 25 23 -2 26 2 29 36 3 30 -2 42 -20 57 -13 11 -17 19 -10 20 6 0 12 4 12 8
0 5 -10 8 -22 7 -23 -2 -37 -28 -32 -60 3 -15 -2 -21 -16 -21 -13 0 -20 7 -20
21 -1 20 -1 20 -15 1 -15 -19 -15 -19 -15 2 0 26 -12 28 -30 7 -18 -21 -33 -4
-32 35 1 28 -2 30 -35 30 -30 0 -35 -3 -30 -20 3 -11 1 -18 -3 -15 -5 3 -10 0
-12 -7 -3 -9 -6 -9 -12 0 -4 7 -3 12 3 12 6 0 8 7 5 15 -10 24 -44 19 -44 -7
0 -18 2 -20 10 -8 7 12 9 10 8 -7 -1 -12 -7 -19 -14 -16 -15 6 -26 32 -18 44
3 5 -70 9 -176 9 -154 0 -179 -2 -168 -14z m172 -11 c-4 -8 -7 -15 -9 -15 -2
0 -5 7 -9 15 -3 9 0 15 9 15 9 0 12 -6 9 -15z m94 -5 c11 -13 14 -13 26 3 7 9
18 17 25 17 13 0 -16 -29 -48 -48 -16 -9 -26 -10 -35 -3 -7 6 -22 8 -34 4 -21
-5 -22 -4 -11 21 9 20 19 26 38 24 14 -2 32 -10 39 -18z m212 12 c0 -10 -36
-9 -46 1 -4 4 5 7 19 7 15 0 27 -4 27 -8z m-4 -33 c7 -11 -12 -29 -31 -29 -5
0 -3 5 5 10 11 7 11 10 2 10 -7 0 -10 5 -7 10 8 13 22 13 31 -1z m-126 -13 c0
-3 -4 -8 -10 -11 -5 -3 -10 -1 -10 4 0 6 5 11 10 11 6 0 10 -2 10 -4z m-132
-12 c12 -4 22 -10 22 -14 0 -10 -49 0 -56 11 -6 10 2 11 34 3z m75 -8 c4 -10
1 -13 -9 -9 -15 6 -19 23 -5 23 5 0 11 -7 14 -14z m387 -6 c0 -5 -7 -10 -15
-10 -8 0 -15 5 -15 10 0 6 7 10 15 10 8 0 15 -4 15 -10z m-200 -32 c0 -5 -10
-8 -22 -7 -13 0 -17 3 -10 6 6 2 12 12 12 21 0 15 2 15 10 2 5 -8 10 -18 10
-22z m-57 0 c-2 -5 -18 -8 -34 -8 -17 0 -28 4 -25 9 3 4 19 8 35 7 16 -1 27
-4 24 -8z m151 1 c-3 -5 -14 -9 -25 -9 -10 0 -19 4 -19 9 0 5 11 9 25 9 13 0
22 -4 19 -9z m0 -240 c-8 -14 -21 -11 -21 5 0 8 6 12 14 9 7 -3 10 -9 7 -14z"/>
<path d="M1747 1383 c-10 -9 -9 -23 1 -23 5 0 9 7 9 15 0 17 -1 18 -10 8z"/>
<path d="M304 1385 c11 -8 16 -15 12 -15 -5 0 -3 -7 4 -14 8 -10 18 -12 33 -7
31 11 47 3 47 -24 0 -25 -15 -34 -42 -27 -10 2 -15 10 -11 20 3 13 1 12 -11
-3 -12 -14 -27 -18 -54 -17 -24 1 -32 -1 -24 -6 19 -13 222 -14 222 -2 0 5 -8
7 -17 3 -15 -5 -16 -3 -5 8 6 7 12 17 12 22 0 5 -8 -1 -18 -13 -11 -13 -24
-20 -30 -16 -18 11 -14 53 6 61 14 6 13 9 -8 15 -14 4 -40 6 -57 5 -19 -1 -34
4 -37 12 -3 7 -13 13 -23 13 -17 -1 -16 -2 1 -15z m56 -20 c0 -7 -30 -13 -34
-7 -3 4 4 9 15 9 10 1 19 0 19 -2z"/>
<path d="M454 1386 c-8 -22 -2 -27 16 -16 12 7 12 12 3 21 -10 10 -14 9 -19
-5z"/>
<path d="M1530 1381 c0 -5 7 -11 14 -14 10 -4 13 -1 9 9 -6 15 -23 19 -23 5z"/>
<path d="M147 1374 c-4 -4 -7 -14 -7 -23 0 -13 2 -13 9 -3 4 8 11 13 15 13 3
-1 6 2 7 6 1 10 -16 15 -24 7z"/>
<path d="M272 1367 c-6 -7 -9 -23 -5 -35 5 -22 6 -22 20 4 15 30 4 54 -15 31z"/>
<path d="M485 1360 c-11 -5 -15 -9 -8 -9 6 -1 9 -10 6 -21 -3 -11 0 -20 6 -20
6 0 11 11 11 24 0 13 6 27 13 29 6 3 8 5 2 6 -5 0 -19 -4 -30 -9z"/>
<path d="M572 1358 c-15 -15 -16 -48 -1 -48 6 0 9 9 6 20 -3 10 0 21 7 23 6 2
8 7 5 10 -3 4 -11 1 -17 -5z"/>
<path d="M1557 1335 c3 -8 9 -12 14 -9 12 7 11 11 -5 17 -10 4 -13 1 -9 -8z"/>
<path d="M193 1323 c3 -13 0 -23 -6 -23 -6 0 -3 -6 8 -13 14 -11 15 -16 5 -22
-8 -5 -18 -1 -26 10 -20 27 -27 13 -10 -19 9 -18 16 -23 19 -14 4 10 6 10 6 1
1 -7 6 -13 12 -13 5 0 7 5 4 10 -3 6 -2 10 4 10 11 0 4 58 -11 80 -7 12 -8 10
-5 -7z"/>
<path d="M233 1318 c-12 -28 -7 -48 13 -48 8 0 14 -5 14 -11 0 -6 -8 -8 -17
-5 -17 6 -17 5 0 -8 18 -14 25 -52 7 -41 -5 3 -10 1 -10 -4 0 -6 5 -11 10 -11
15 0 12 -56 -3 -69 -8 -6 -17 -8 -21 -4 -4 4 -4 -1 0 -12 5 -11 9 -14 12 -7 2
7 10 12 18 12 22 0 20 165 -2 174 -11 4 -14 13 -10 31 8 31 2 32 -11 3z"/>
<path d="M300 1326 c0 -9 5 -16 10 -16 6 0 10 4 10 9 0 6 -4 13 -10 16 -5 3
-10 -1 -10 -9z"/>
<path d="M360 1325 c0 -8 5 -15 10 -15 6 0 10 7 10 15 0 8 -4 15 -10 15 -5 0
-10 -7 -10 -15z"/>
<path d="M420 1331 c0 -6 5 -13 10 -16 6 -3 10 1 10 9 0 9 -4 16 -10 16 -5 0
-10 -4 -10 -9z"/>
<path d="M691 1324 c0 -11 3 -14 6 -6 3 7 2 16 -1 19 -3 4 -6 -2 -5 -13z"/>
<path d="M136 1321 c-7 -11 22 -23 35 -15 5 3 9 9 9 15 0 12 -37 12 -44 0z"/>
<path d="M516 1322 c-3 -5 1 -9 9 -9 8 0 12 4 9 9 -3 4 -7 8 -9 8 -2 0 -6 -4
-9 -8z"/>
<path d="M496 1292 c-3 -5 1 -9 9 -9 8 0 15 4 15 9 0 4 -4 8 -9 8 -6 0 -12 -4
-15 -8z"/>
<path d="M131 1264 c0 -11 3 -14 6 -6 3 7 2 16 -1 19 -3 4 -6 -2 -5 -13z"/>
<path d="M2082 1200 c0 -14 2 -19 5 -12 2 6 2 18 0 25 -3 6 -5 1 -5 -13z"/>
<path d="M2146 1194 c-4 -10 -1 -14 6 -12 15 5 23 28 10 28 -5 0 -13 -7 -16
-16z"/>
<path d="M164 1179 c-4 -7 -3 -9 4 -5 5 3 13 0 15 -6 4 -9 6 -10 6 -1 1 17
-16 25 -25 12z"/>
<path d="M2070 1161 c0 -6 4 -13 10 -16 6 -3 7 1 4 9 -7 18 -14 21 -14 7z"/>
<path d="M2107 1140 c3 -11 9 -17 14 -15 10 7 1 35 -11 35 -5 0 -6 -9 -3 -20z"/>
<path d="M376 1100 c3 -14 11 -32 16 -40 6 -10 7 -7 2 10 -3 14 -11 32 -16 40
-6 10 -7 7 -2 -10z"/>
<path d="M452 1100 c0 -14 2 -19 5 -12 2 6 2 18 0 25 -3 6 -5 1 -5 -13z"/>
<path d="M513 1085 c0 -22 2 -30 4 -17 2 12 2 30 0 40 -3 9 -5 -1 -4 -23z"/>
<path d="M1528 1085 c2 -19 6 -35 8 -35 2 0 4 16 4 35 0 19 -4 35 -8 35 -4 0
-6 -16 -4 -35z"/>
<path d="M1753 1085 c0 -22 2 -30 4 -17 2 12 2 30 0 40 -3 9 -5 -1 -4 -23z"/>
<path d="M1072 1080 c0 -19 2 -27 5 -17 2 9 2 25 0 35 -3 9 -5 1 -5 -18z"/>
<path d="M1250 1094 c0 -6 7 -19 16 -30 14 -18 14 -18 3 6 -14 31 -19 36 -19
24z"/>
<path d="M1448 1073 c5 -21 7 -23 10 -9 2 10 0 22 -6 28 -6 6 -7 0 -4 -19z"/>
<path d="M1496 1087 c3 -10 9 -15 12 -12 3 3 0 11 -7 18 -10 9 -11 8 -5 -6z"/>
<path d="M1947 1079 c4 -13 8 -18 11 -10 2 7 -1 18 -6 23 -8 8 -9 4 -5 -13z"/>
<path d="M207 1075 c-4 -11 -12 -27 -18 -36 -10 -13 -10 -20 2 -31 12 -11 18
-10 39 10 l25 24 -29 -8 c-21 -5 -27 -4 -22 5 4 6 15 11 24 11 11 0 13 3 6 8
-6 4 -13 14 -16 22 -3 11 -6 10 -11 -5z"/>
<path d="M259 1055 c-6 -40 -4 -53 7 -43 3 3 4 23 2 44 l-3 39 -6 -40z"/>
<path d="M645 1080 c3 -5 8 -10 11 -10 2 0 4 5 4 10 0 6 -5 10 -11 10 -5 0 -7
-4 -4 -10z"/>
<path d="M722 1070 c0 -14 2 -19 5 -12 2 6 2 18 0 25 -3 6 -5 1 -5 -13z"/>
<path d="M862 1070 c0 -14 2 -19 5 -12 2 6 2 18 0 25 -3 6 -5 1 -5 -13z"/>
<path d="M1011 1074 c0 -11 3 -14 6 -6 3 7 2 16 -1 19 -3 4 -6 -2 -5 -13z"/>
<path d="M1046 1077 c3 -10 9 -15 12 -12 3 3 0 11 -7 18 -10 9 -11 8 -5 -6z"/>
<path d="M1340 1086 c0 -2 8 -10 18 -17 15 -13 16 -12 3 4 -13 16 -21 21 -21
13z"/>
<path d="M1392 1070 c0 -14 2 -19 5 -12 2 6 2 18 0 25 -3 6 -5 1 -5 -13z"/>
<path d="M1473 1072 c1 -13 10 -22 25 -25 18 -4 21 -2 10 7 -7 6 -18 17 -25
25 -10 11 -12 10 -10 -7z"/>
<path d="M1644 1070 c1 -8 10 -16 21 -17 15 -1 15 0 3 3 -9 3 -19 11 -21 17
-2 7 -3 5 -3 -3z"/>
<path d="M1690 1076 c0 -8 4 -17 9 -20 5 -4 7 3 4 14 -6 23 -13 26 -13 6z"/>
<path d="M1726 1077 c3 -10 9 -15 12 -12 3 3 0 11 -7 18 -10 9 -11 8 -5 -6z"/>
<path d="M1776 1082 c-2 -4 -1 -14 4 -22 7 -11 9 -9 7 8 -1 24 -3 26 -11 14z"/>
<path d="M1811 1074 c0 -11 3 -14 6 -6 3 7 2 16 -1 19 -3 4 -6 -2 -5 -13z"/>
<path d="M1910 1076 c0 -8 4 -17 9 -20 5 -4 7 3 4 14 -6 23 -13 26 -13 6z"/>
<path d="M540 1076 c0 -2 7 -9 15 -16 9 -7 15 -8 15 -2 0 5 -7 12 -15 16 -8 3
-15 4 -15 2z"/>
<path d="M1550 1071 c0 -10 19 -25 25 -20 1 2 -3 10 -11 17 -8 7 -14 8 -14 3z"/>
<path d="M2167 1060 c3 -11 7 -20 9 -20 2 0 4 9 4 20 0 11 -4 20 -9 20 -5 0
-7 -9 -4 -20z"/>
<path d="M1835 1060 c-3 -5 -1 -10 4 -10 6 0 11 5 11 10 0 6 -2 10 -4 10 -3 0
-8 -4 -11 -10z"/>
<path d="M2113 990 c1 -11 5 -20 9 -20 11 0 10 28 -1 35 -6 3 -9 -4 -8 -15z"/>
<path d="M2150 1000 c0 -5 7 -10 15 -10 8 0 15 -5 15 -11 0 -6 -9 -8 -22 -4
-22 6 -22 6 -4 -9 26 -21 31 -20 33 4 1 11 -7 25 -18 30 -13 7 -19 7 -19 0z"/>
<path d="M1773 955 c0 -22 2 -30 4 -17 2 12 2 30 0 40 -3 9 -5 -1 -4 -23z"/>
<path d="M257 961 c-4 -18 -9 -18 -46 -9 -43 11 -58 7 -46 -12 4 -7 20 -8 43
-4 35 7 36 6 22 -12 -14 -18 -14 -18 6 -1 11 9 24 14 27 10 4 -3 7 6 7 20 0
32 -6 35 -13 8z"/>
<path d="M1627 949 c4 -13 8 -18 11 -10 2 7 -1 18 -6 23 -8 8 -9 4 -5 -13z"/>
<path d="M350 940 c6 -11 12 -20 14 -20 2 0 2 9 -1 20 -3 11 -9 20 -15 20 -5
0 -4 -9 2 -20z"/>
<path d="M512 940 c0 -14 2 -19 5 -12 2 6 2 18 0 25 -3 6 -5 1 -5 -13z"/>
<path d="M1060 946 c0 -8 4 -17 9 -20 5 -4 7 3 4 14 -6 23 -13 26 -13 6z"/>
<path d="M1141 944 c0 -11 3 -14 6 -6 3 7 2 16 -1 19 -3 4 -6 -2 -5 -13z"/>
<path d="M1202 940 c0 -14 2 -19 5 -12 2 6 2 18 0 25 -3 6 -5 1 -5 -13z"/>
<path d="M1482 940 c0 -14 2 -19 5 -12 2 6 2 18 0 25 -3 6 -5 1 -5 -13z"/>
<path d="M1532 940 c0 -14 2 -19 5 -12 2 6 2 18 0 25 -3 6 -5 1 -5 -13z"/>
<path d="M1686 947 c3 -10 9 -15 12 -12 3 3 0 11 -7 18 -10 9 -11 8 -5 -6z"/>
<path d="M1712 940 c0 -14 2 -19 5 -12 2 6 2 18 0 25 -3 6 -5 1 -5 -13z"/>
<path d="M390 941 c0 -6 4 -13 10 -16 6 -3 7 1 4 9 -7 18 -14 21 -14 7z"/>
<path d="M590 935 c0 -8 4 -15 10 -15 5 0 7 7 4 15 -4 8 -8 15 -10 15 -2 0 -4
-7 -4 -15z"/>
<path d="M701 934 c0 -11 3 -14 6 -6 3 7 2 16 -1 19 -3 4 -6 -2 -5 -13z"/>
<path d="M780 941 c0 -6 4 -13 10 -16 6 -3 7 1 4 9 -7 18 -14 21 -14 7z"/>
<path d="M830 941 c0 -6 4 -13 10 -16 6 -3 7 1 4 9 -7 18 -14 21 -14 7z"/>
<path d="M1100 941 c0 -6 4 -13 10 -16 6 -3 7 1 4 9 -7 18 -14 21 -14 7z"/>
<path d="M1650 941 c0 -6 4 -13 10 -16 6 -3 7 1 4 9 -7 18 -14 21 -14 7z"/>
<path d="M2143 935 c-3 -9 -3 -19 1 -22 3 -4 6 -1 6 5 0 7 7 9 18 5 15 -6 15
-5 3 10 -17 21 -20 21 -28 2z"/>
<path d="M1596 915 c-3 -8 -1 -15 4 -15 6 0 10 7 10 15 0 8 -2 15 -4 15 -2 0
-6 -7 -10 -15z"/>
<path d="M260 899 c0 -7 -9 -9 -21 -6 -16 4 -18 3 -8 -9 6 -8 8 -14 3 -14 -5
0 -1 -5 9 -11 9 -5 17 -19 17 -30 0 -11 -5 -17 -10 -14 -6 3 -14 -4 -19 -17
-9 -22 -10 -22 -10 -2 -1 28 -28 38 -40 17 -8 -15 -11 -15 -27 -3 -11 9 -15
10 -10 3 4 -7 4 -13 -1 -13 -4 0 -9 -12 -9 -28 -1 -15 1 -21 3 -14 3 6 9 10
14 7 5 -4 6 2 3 12 -5 14 -4 15 4 4 6 -8 17 -11 27 -8 9 4 14 3 10 -3 -3 -6
-13 -10 -22 -10 -10 0 -13 -6 -9 -16 3 -9 6 -21 7 -27 1 -7 5 -1 9 13 8 24 8
24 9 3 1 -15 7 -23 19 -23 21 0 23 -57 1 -71 -10 -6 -10 -9 -1 -9 6 0 12 -8
12 -17 0 -16 1 -16 17 0 15 14 15 21 5 37 -16 26 -15 31 3 24 18 -7 20 -70 3
-77 -10 -3 -10 -9 0 -26 6 -11 12 -29 12 -38 0 -14 -4 -12 -17 7 -10 14 -17
27 -17 30 1 3 -9 16 -22 30 -20 20 -24 22 -24 7 0 -9 5 -17 10 -17 6 0 10 -6
10 -14 0 -8 6 -16 14 -19 9 -4 13 -14 9 -29 -4 -18 -3 -20 6 -8 9 13 11 13 11
-2 0 -10 -4 -18 -8 -18 -5 0 -14 -12 -21 -27 -11 -23 -10 -29 5 -40 10 -7 23
-13 30 -13 8 0 14 -17 17 -42 2 -24 4 86 5 245 1 158 0 287 -3 287 -3 0 -5 -5
-5 -11z m-3 -121 c-3 -8 -6 -5 -6 6 -1 11 2 17 5 13 3 -3 4 -12 1 -19z m-2
-58 c3 -5 1 -10 -4 -10 -6 0 -11 5 -11 10 0 6 2 10 4 10 3 0 8 -4 11 -10z m2
-232 c-3 -8 -6 -5 -6 6 -1 11 2 17 5 13 3 -3 4 -12 1 -19z m-13 -14 c3 -8 2
-12 -4 -9 -6 3 -10 10 -10 16 0 14 7 11 14 -7z"/>
<path d="M2068 888 c-4 -10 -1 -19 8 -22 24 -9 36 -7 29 4 -4 6 -10 8 -15 5
-5 -3 -10 3 -12 12 -3 16 -4 17 -10 1z"/>
<path d="M2127 881 c-3 -14 2 -20 19 -24 27 -5 28 -3 14 24 -14 24 -26 24 -33
0z"/>
<path d="M2030 859 c0 -27 2 -30 15 -19 11 9 12 17 4 31 -14 27 -19 24 -19
-12z"/>
<path d="M150 869 c0 -5 5 -7 10 -4 6 3 10 8 10 11 0 2 -4 4 -10 4 -5 0 -10
-5 -10 -11z"/>
<path d="M206 855 c-3 -8 -1 -15 4 -15 6 0 10 7 10 15 0 8 -2 15 -4 15 -2 0
-6 -7 -10 -15z"/>
<path d="M1003 825 c0 -22 2 -30 4 -17 2 12 2 30 0 40 -3 9 -5 -1 -4 -23z"/>
<path d="M1673 825 c0 -22 2 -30 4 -17 2 12 2 30 0 40 -3 9 -5 -1 -4 -23z"/>
<path d="M383 815 c0 -22 2 -30 4 -17 2 12 2 30 0 40 -3 9 -5 -1 -4 -23z"/>
<path d="M1107 838 c-2 -7 -1 -22 4 -33 6 -16 8 -14 8 13 1 33 -4 41 -12 20z"/>
<path d="M1230 820 c0 -16 4 -30 8 -30 5 0 7 14 4 30 -2 17 -6 30 -8 30 -2 0
-4 -13 -4 -30z"/>
<path d="M1642 815 c0 -16 2 -22 5 -12 2 9 2 23 0 30 -3 6 -5 -1 -5 -18z"/>
<path d="M2060 829 c0 -5 5 -7 10 -4 6 3 10 8 10 11 0 2 -4 4 -10 4 -5 0 -10
-5 -10 -11z"/>
<path d="M412 805 c0 -16 2 -22 5 -12 2 9 2 23 0 30 -3 6 -5 -1 -5 -18z"/>
<path d="M492 805 c0 -16 2 -22 5 -12 2 9 2 23 0 30 -3 6 -5 -1 -5 -18z"/>
<path d="M522 805 c0 -16 2 -22 5 -12 2 9 2 23 0 30 -3 6 -5 -1 -5 -18z"/>
<path d="M592 805 c0 -16 2 -22 5 -12 2 9 2 23 0 30 -3 6 -5 -1 -5 -18z"/>
<path d="M762 810 c0 -14 2 -19 5 -12 2 6 2 18 0 25 -3 6 -5 1 -5 -13z"/>
<path d="M902 810 c0 -14 2 -19 5 -12 2 6 2 18 0 25 -3 6 -5 1 -5 -13z"/>
<path d="M932 805 c0 -16 2 -22 5 -12 2 9 2 23 0 30 -3 6 -5 -1 -5 -18z"/>
<path d="M1312 810 c0 -14 2 -19 5 -12 2 6 2 18 0 25 -3 6 -5 1 -5 -13z"/>
<path d="M1342 800 c0 -19 2 -27 5 -17 2 9 2 25 0 35 -3 9 -5 1 -5 -18z"/>
<path d="M1366 815 c4 -8 8 -15 10 -15 2 0 4 7 4 15 0 8 -4 15 -10 15 -5 0 -7
-7 -4 -15z"/>
<path d="M1426 815 c4 -8 8 -15 10 -15 2 0 4 7 4 15 0 8 -4 15 -10 15 -5 0 -7
-7 -4 -15z"/>
<path d="M1702 810 c0 -14 2 -19 5 -12 2 6 2 18 0 25 -3 6 -5 1 -5 -13z"/>
<path d="M1732 810 c0 -14 2 -19 5 -12 2 6 2 18 0 25 -3 6 -5 1 -5 -13z"/>
<path d="M620 816 c0 -2 8 -10 18 -17 15 -13 16 -12 3 4 -13 16 -21 21 -21 13z"/>
<path d="M1020 813 c0 -6 8 -17 18 -24 16 -13 16 -13 2 6 -8 11 -16 22 -17 24
-2 2 -3 0 -3 -6z"/>
<path d="M1070 811 c0 -6 4 -13 10 -16 6 -3 7 1 4 9 -7 18 -14 21 -14 7z"/>
<path d="M1760 816 c0 -2 7 -9 15 -16 9 -7 15 -8 15 -2 0 5 -7 12 -15 16 -8 3
-15 4 -15 2z"/>
<path d="M1285 790 c3 -5 8 -10 11 -10 2 0 4 5 4 10 0 6 -5 10 -11 10 -5 0 -7
-4 -4 -10z"/>
<path d="M1401 784 c0 -11 3 -14 6 -6 3 7 2 16 -1 19 -3 4 -6 -2 -5 -13z"/>
<path d="M135 729 c-4 -6 -5 -13 -2 -16 7 -7 27 6 27 18 0 12 -17 12 -25 -2z"/>
<path d="M1322 700 c0 -14 2 -19 5 -12 2 6 2 18 0 25 -3 6 -5 1 -5 -13z"/>
<path d="M502 680 c0 -19 2 -27 5 -17 2 9 2 25 0 35 -3 9 -5 1 -5 -18z"/>
<path d="M150 696 c0 -10 27 -36 37 -36 5 0 10 10 10 22 2 17 0 19 -7 9 -7
-12 -11 -12 -24 -2 -9 8 -16 10 -16 7z"/>
<path d="M400 675 c0 -14 2 -25 4 -25 2 0 6 11 8 25 3 14 1 25 -3 25 -5 0 -9
-11 -9 -25z"/>
<path d="M472 675 c0 -16 2 -22 5 -12 2 9 2 23 0 30 -3 6 -5 -1 -5 -18z"/>
<path d="M552 680 c0 -14 2 -19 5 -12 2 6 2 18 0 25 -3 6 -5 1 -5 -13z"/>
<path d="M632 680 c0 -14 2 -19 5 -12 2 6 2 18 0 25 -3 6 -5 1 -5 -13z"/>
<path d="M937 679 c4 -13 8 -18 11 -10 2 7 -1 18 -6 23 -8 8 -9 4 -5 -13z"/>
<path d="M1086 687 c3 -10 9 -15 12 -12 3 3 0 11 -7 18 -10 9 -11 8 -5 -6z"/>
<path d="M1160 681 c0 -11 4 -22 9 -25 4 -3 6 6 3 19 -5 30 -12 33 -12 6z"/>
<path d="M1190 695 c0 -5 5 -17 10 -25 5 -8 10 -10 10 -5 0 6 -5 17 -10 25 -5
8 -10 11 -10 5z"/>
<path d="M1607 679 c4 -13 8 -18 11 -10 2 7 -1 18 -6 23 -8 8 -9 4 -5 -13z"/>
<path d="M372 670 c0 -14 2 -19 5 -12 2 6 2 18 0 25 -3 6 -5 1 -5 -13z"/>
<path d="M703 676 c1 -11 9 -21 17 -23 10 -3 11 -2 4 4 -6 4 -14 15 -17 23 -5
11 -6 9 -4 -4z"/>
<path d="M782 670 c0 -14 2 -19 5 -12 2 6 2 18 0 25 -3 6 -5 1 -5 -13z"/>
<path d="M963 676 c1 -11 9 -21 17 -23 10 -3 11 -2 4 4 -6 4 -14 15 -17 23 -5
11 -6 9 -4 -4z"/>
<path d="M1243 676 c1 -11 9 -21 17 -23 10 -3 11 -2 4 4 -6 4 -14 15 -17 23
-5 11 -6 9 -4 -4z"/>
<path d="M1290 676 c0 -8 4 -17 9 -20 5 -4 7 3 4 14 -6 23 -13 26 -13 6z"/>
<path d="M1440 686 c0 -2 7 -9 15 -16 9 -7 15 -8 15 -2 0 5 -7 12 -15 16 -8 3
-15 4 -15 2z"/>
<path d="M1551 674 c0 -11 3 -14 6 -6 3 7 2 16 -1 19 -3 4 -6 -2 -5 -13z"/>
<path d="M1410 671 c0 -6 4 -13 10 -16 6 -3 7 1 4 9 -7 18 -14 21 -14 7z"/>
<path d="M2097 566 c-3 -8 -2 -18 3 -21 13 -8 20 9 11 24 -6 10 -10 9 -14 -3z"/>
<path d="M686 557 c3 -10 9 -15 12 -12 3 3 0 11 -7 18 -10 9 -11 8 -5 -6z"/>
<path d="M130 549 c0 -5 5 -7 10 -4 6 3 10 8 10 11 0 2 -4 4 -10 4 -5 0 -10
-5 -10 -11z"/>
<path d="M352 540 c0 -14 2 -19 5 -12 2 6 2 18 0 25 -3 6 -5 1 -5 -13z"/>
<path d="M522 540 c0 -14 2 -19 5 -12 2 6 2 18 0 25 -3 6 -5 1 -5 -13z"/>
<path d="M632 540 c0 -14 2 -19 5 -12 2 6 2 18 0 25 -3 6 -5 1 -5 -13z"/>
<path d="M197 530 c-3 -11 -1 -20 4 -20 5 0 9 9 9 20 0 11 -2 20 -4 20 -2 0
-6 -9 -9 -20z"/>
<path d="M470 530 c0 -6 7 -10 15 -10 8 0 15 2 15 4 0 2 -7 6 -15 10 -8 3 -15
1 -15 -4z"/>
<path d="M662 520 c0 -14 2 -19 5 -12 2 6 2 18 0 25 -3 6 -5 1 -5 -13z"/>
<path d="M150 520 c8 -5 20 -10 25 -10 6 0 3 5 -5 10 -8 5 -19 10 -25 10 -5 0
-3 -5 5 -10z"/>
<path d="M2164 464 c3 -9 6 -32 6 -52 0 -20 4 -32 9 -26 11 12 2 94 -11 94 -6
0 -7 -7 -4 -16z"/>
<path d="M135 440 c-8 -13 5 -13 25 0 13 8 13 10 -2 10 -9 0 -20 -4 -23 -10z"/>
<path d="M185 420 c3 -5 8 -10 11 -10 2 0 4 5 4 10 0 6 -5 10 -11 10 -5 0 -7
-4 -4 -10z"/>
<path d="M157 353 c-4 -3 -7 -11 -7 -17 0 -6 5 -5 12 2 6 6 9 14 7 17 -3 3 -9
2 -12 -2z"/>
<path d="M230 351 c0 -5 -11 -8 -25 -7 -13 2 -22 -1 -19 -5 9 -15 54 -10 54 6
0 8 -2 15 -5 15 -3 0 -5 -4 -5 -9z"/>
<path d="M1380 313 c0 -13 2 -15 8 -5 9 14 42 6 42 -10 0 -6 7 -8 15 -4 8 3
15 1 15 -5 0 -6 5 -7 10 -4 15 9 12 25 -5 25 -8 0 -15 5 -15 10 0 6 -16 10
-35 10 -27 0 -35 -4 -35 -17z"/>
<path d="M1478 323 c17 -3 22 -9 17 -21 -4 -9 -9 -23 -12 -30 -4 -8 2 -11 18
-8 13 3 29 5 34 5 6 1 4 5 -3 10 -16 10 -2 23 43 39 26 9 19 10 -45 10 -41 0
-65 -3 -52 -5z"/>
<path d="M193 295 c0 -8 3 -14 6 -13 23 2 31 -6 32 -34 l2 -33 4 30 c6 43 21
54 39 31 8 -11 14 -15 14 -9 0 15 -27 36 -39 29 -5 -3 -12 0 -14 6 -4 10 -6
10 -6 0 -1 -9 -6 -10 -19 -3 -14 7 -19 6 -19 -4z"/>
<path d="M764 275 c-3 -14 -10 -25 -15 -25 -5 0 -9 -7 -9 -15 0 -8 5 -15 12
-15 6 0 8 3 5 7 -4 3 -1 13 5 21 12 14 22 52 13 52 -2 0 -7 -11 -11 -25z"/>
<path d="M1371 274 c0 -11 3 -14 6 -6 3 7 2 16 -1 19 -3 4 -6 -2 -5 -13z"/>
<path d="M1110 266 c0 -9 5 -16 10 -16 6 0 10 4 10 9 0 6 -4 13 -10 16 -5 3
-10 -1 -10 -9z"/>
<path d="M1440 270 c0 -5 5 -10 11 -10 5 0 7 5 4 10 -3 6 -8 10 -11 10 -2 0
-4 -4 -4 -10z"/>
<path d="M140 265 c0 -7 30 -13 34 -7 3 4 -4 9 -15 9 -10 1 -19 0 -19 -2z"/>
<path d="M202 240 c0 -19 2 -27 5 -17 2 9 2 25 0 35 -3 9 -5 1 -5 -18z"/>
<path d="M328 225 c-6 -48 -4 -52 9 -23 6 13 7 32 3 43 -6 16 -8 11 -12 -20z"/>
<path d="M266 225 c4 -24 2 -25 -39 -25 -31 0 -49 -6 -62 -20 -10 -11 -13 -20
-7 -20 6 0 12 4 14 10 2 5 18 13 37 16 25 5 32 4 27 -4 -4 -7 -1 -12 7 -12 23
0 45 64 26 75 -4 3 -6 -6 -3 -20z"/>
<path d="M302 230 c0 -14 2 -19 5 -12 2 6 2 18 0 25 -3 6 -5 1 -5 -13z"/>
<path d="M785 223 c1 -12 -4 -24 -12 -27 -23 -9 -30 -7 -13 4 9 6 10 10 3 10
-17 0 -25 -17 -12 -26 17 -10 69 -13 63 -3 -3 5 -11 7 -17 3 -7 -3 -4 1 6 10
11 8 17 22 14 33 -4 16 -5 16 -6 1 0 -10 -5 -18 -10 -18 -5 0 -12 8 -14 18 -2
9 -3 7 -2 -5z"/>
<path d="M840 236 c0 -9 5 -16 10 -16 6 0 10 4 10 9 0 6 -4 13 -10 16 -5 3
-10 -1 -10 -9z"/>
<path d="M367 207 c-10 -10 -17 -20 -15 -23 8 -7 41 22 37 32 -2 6 -12 1 -22
-9z"/>
<path d="M390 180 c0 -5 5 -10 11 -10 5 0 7 5 4 10 -3 6 -8 10 -11 10 -2 0 -4
-4 -4 -10z"/>
<path d="M1240 162 c0 -9 -10 -12 -34 -8 -19 3 -37 2 -40 -3 -3 -4 29 -8 72
-9 42 0 69 2 60 5 -10 2 -18 10 -18 16 0 7 -4 6 -10 -3 -9 -13 -11 -13 -20 0
-7 11 -10 11 -10 2z"/>
<path d="M553 146 c0 -6 15 -11 33 -11 38 0 36 11 -4 17 -16 2 -29 -1 -29 -6z"/>
<path d="M1056 152 c-3 -5 1 -9 9 -9 8 0 12 4 9 9 -3 4 -7 8 -9 8 -2 0 -6 -4
-9 -8z"/>
<path d="M233 143 c9 -2 23 -2 30 0 6 3 -1 5 -18 5 -16 0 -22 -2 -12 -5z"/>
<path d="M310 139 c0 -5 5 -7 10 -4 6 3 10 8 10 11 0 2 -4 4 -10 4 -5 0 -10
-5 -10 -11z"/>
<path d="M518 143 c7 -3 16 -2 19 1 4 3 -2 6 -13 5 -11 0 -14 -3 -6 -6z"/>
<path d="M813 143 c9 -2 23 -2 30 0 6 3 -1 5 -18 5 -16 0 -22 -2 -12 -5z"/>
<path d="M990 146 c0 -2 11 -6 25 -8 14 -3 25 -1 25 3 0 5 -11 9 -25 9 -14 0
-25 -2 -25 -4z"/>
<path d="M467 257 c-6 -17 17 -55 26 -41 3 5 0 20 -7 33 -10 18 -14 20 -19 8z"/>
<path d="M582 240 c0 -14 2 -19 5 -12 2 6 2 18 0 25 -3 6 -5 1 -5 -13z"/>
<path d="M551 234 c0 -11 3 -14 6 -6 3 7 2 16 -1 19 -3 4 -6 -2 -5 -13z"/>
<path d="M1191 234 c0 -11 3 -14 6 -6 3 7 2 16 -1 19 -3 4 -6 -2 -5 -13z"/>
</g>
</svg>
